<!DOCTYPE svg PUBLIC "-//W3C//DTD SVG 20010904//EN" "http://www.w3.org/TR/2001/REC-SVG-20010904/DTD/svg10.dtd">
<svg version="1.0" xmlns="http://www.w3.org/2000/svg" width="1024px" height="323px" viewBox="0 0 10240 3230" preserveAspectRatio="xMidYMid meet">
<g id="layer101" fill="#00233f" stroke="none">
 <path d="M0 1615 l0 -1615 5120 0 5120 0 0 1615 0 1615 -5120 0 -5120 0 0 -1615z"/>
 </g>
<g id="layer102" fill="#2e1c24" stroke="none">
 <path d="M0 1615 l0 -1615 5120 0 5120 0 0 1614 0 1614 -5120 1 -5120 1 0 -1615z m4712 868 c1 -16 3 -53 4 -83 1 -30 5 -84 8 -120 4 -36 8 -94 10 -130 2 -36 5 -71 5 -78 1 -10 23 -12 92 -10 l91 3 4 55 c2 30 6 93 9 140 9 143 14 184 23 215 l8 30 203 3 203 2 -7 -37 c-7 -37 -10 -54 -20 -138 -11 -95 -14 -123 -20 -165 -6 -46 -10 -80 -19 -160 -3 -25 -8 -63 -11 -85 -3 -22 -8 -56 -10 -75 -5 -49 -13 -117 -20 -170 -6 -46 -11 -81 -19 -160 -3 -25 -8 -63 -11 -85 -3 -22 -8 -56 -10 -75 -5 -50 -16 -140 -21 -175 -4 -32 -11 -89 -19 -158 -2 -23 -7 -60 -10 -82 -3 -22 -8 -56 -10 -75 -6 -65 -17 -155 -21 -185 -3 -16 -6 -46 -9 -65 -2 -19 -6 -60 -10 -90 -4 -30 -7 -65 -7 -77 l0 -23 -289 0 -288 0 0 28 c0 28 -6 85 -16 162 -7 52 -14 109 -20 165 -6 54 -15 133 -21 170 -2 17 -6 50 -8 75 -5 47 -14 120 -22 180 -2 19 -6 55 -9 80 -5 52 -11 106 -20 170 -3 25 -8 65 -11 90 -2 25 -6 59 -8 75 -6 34 -13 96 -22 170 -3 28 -7 64 -9 80 -7 56 -16 130 -20 170 -2 22 -7 60 -10 85 -9 64 -15 118 -20 170 -3 25 -7 61 -9 80 -3 19 -7 56 -10 83 l-4 47 204 0 204 0 2 -27z m1536 -150 l2 -173 -179 0 -179 0 5 -22 c3 -13 10 -28 15 -35 5 -7 7 -17 4 -22 -4 -6 1 -27 9 -48 9 -21 17 -51 17 -66 1 -15 5 -30 10 -33 4 -3 6 -9 3 -14 -3 -5 -1 -19 5 -30 6 -12 12 -35 12 -51 1 -16 5 -32 10 -35 4 -3 6 -10 3 -15 -4 -5 -3 -15 1 -21 5 -7 9 -19 11 -28 4 -25 21 -93 31 -127 6 -17 8 -34 5 -37 -3 -3 -1 -12 5 -19 7 -8 9 -17 6 -20 -3 -3 -2 -12 2 -19 8 -13 14 -41 15 -70 0 -10 4 -20 9 -23 5 -3 7 -12 4 -19 -3 -8 -1 -17 5 -20 6 -4 8 -13 5 -20 -3 -8 -1 -17 5 -21 6 -3 11 -20 11 -36 0 -17 5 -39 11 -50 6 -11 11 -34 11 -50 1 -16 5 -32 10 -35 4 -3 6 -9 4 -13 -3 -4 0 -25 6 -47 6 -21 11 -44 10 -51 -2 -6 2 -14 7 -18 6 -3 8 -12 5 -19 -3 -8 -1 -17 5 -20 6 -4 8 -13 5 -20 -3 -8 -1 -17 5 -20 6 -4 8 -13 5 -20 -3 -8 -1 -17 5 -20 6 -4 8 -13 4 -21 -3 -9 0 -22 7 -29 6 -8 12 -29 12 -46 1 -17 5 -33 10 -36 4 -3 6 -9 3 -14 -3 -5 1 -28 10 -52 10 -29 15 -83 15 -170 l0 -128 -380 0 -380 0 2 172 3 173 145 2 c80 1 149 2 154 3 5 0 3 6 -3 14 -7 8 -13 29 -13 46 -1 17 -5 33 -10 36 -4 3 -6 10 -2 15 3 5 0 26 -7 47 -7 20 -12 42 -11 49 1 6 -2 14 -7 18 -6 3 -8 12 -5 19 3 8 1 17 -5 21 -6 3 -11 21 -11 40 0 19 -4 36 -9 39 -8 5 -20 65 -22 108 0 10 -4 20 -9 23 -5 3 -7 12 -4 19 3 8 0 17 -5 21 -6 3 -9 10 -6 15 3 5 1 18 -5 29 -5 11 -11 33 -12 48 -1 15 -6 33 -10 40 -5 6 -10 26 -10 43 -1 17 -5 33 -10 36 -4 3 -6 9 -3 14 3 5 -2 29 -11 55 -8 26 -16 56 -16 68 -1 12 -6 27 -10 34 -5 6 -10 26 -10 43 -1 17 -5 33 -10 36 -4 3 -6 10 -2 15 3 5 0 26 -7 47 -7 20 -12 41 -11 46 2 4 -2 14 -8 20 -5 7 -7 16 -3 19 3 4 1 12 -4 19 -10 12 -20 57 -28 120 -2 15 -9 36 -14 46 -6 11 -8 22 -4 25 3 4 1 13 -5 20 -7 8 -9 17 -5 20 3 4 1 12 -4 19 -6 8 -11 83 -12 176 l-2 162 398 -2 398 -3 3 -172z m514 150 c1 -16 3 -50 4 -78 1 -27 5 -77 8 -110 4 -33 8 -94 10 -135 3 -41 5 -81 5 -88 1 -10 23 -12 92 -10 l90 3 5 60 c13 181 15 215 20 270 3 33 6 72 7 88 l2 27 209 0 208 0 -7 -37 c-10 -50 -16 -98 -30 -228 -8 -80 -13 -109 -19 -130 -12 -38 6 -47 100 -48 75 -2 88 0 85 13 -2 8 -5 35 -7 60 -2 25 -6 61 -8 80 -3 19 -8 60 -11 90 -11 95 -14 124 -19 163 l-4 37 204 0 c226 0 205 7 210 -70 1 -19 5 -75 9 -125 4 -49 8 -117 10 -150 5 -119 -7 -106 96 -103 l91 3 4 55 c3 30 7 82 10 115 6 69 15 207 16 248 l1 27 210 0 210 0 -7 -37 c-4 -21 -9 -56 -12 -78 -3 -22 -7 -56 -9 -75 -3 -19 -7 -51 -9 -70 -8 -67 -17 -145 -21 -175 -3 -16 -7 -52 -10 -80 -3 -27 -7 -63 -10 -80 -8 -55 -16 -119 -21 -165 -2 -25 -6 -58 -9 -75 -6 -43 -15 -122 -21 -175 -2 -25 -6 -58 -9 -75 -7 -49 -16 -118 -20 -155 -5 -49 -13 -117 -20 -170 -3 -25 -8 -65 -11 -90 -2 -25 -6 -58 -9 -75 -7 -54 -16 -119 -20 -155 -4 -44 -15 -135 -20 -175 -8 -59 -16 -130 -17 -153 l0 -22 -287 2 -286 3 -2 25 c-2 22 -4 48 -18 170 -2 19 -6 55 -10 80 -6 43 -11 86 -20 175 -2 22 -7 58 -10 80 -6 39 -11 85 -20 170 -2 22 -6 58 -9 80 -5 37 -11 86 -21 175 -2 19 -7 51 -9 70 -9 56 -27 227 -27 254 0 11 -4 27 -10 38 -9 16 -24 18 -134 18 l-123 0 -8 -32 c-4 -18 -9 -49 -11 -68 -2 -19 -5 -51 -8 -70 -2 -19 -7 -55 -9 -80 -3 -25 -8 -63 -11 -85 -6 -38 -8 -56 -20 -170 -3 -27 -8 -66 -11 -85 -7 -53 -13 -100 -18 -150 -3 -25 -8 -63 -11 -85 -3 -22 -8 -56 -10 -75 -12 -117 -16 -158 -21 -185 -3 -16 -6 -46 -9 -65 -2 -19 -6 -60 -10 -90 -4 -30 -7 -65 -7 -77 l0 -23 -289 0 -288 0 0 28 c0 28 -7 100 -15 162 -10 72 -17 126 -22 175 -5 55 -11 101 -18 155 -5 37 -15 121 -22 180 -2 19 -6 51 -8 70 -3 19 -8 60 -11 90 -11 105 -13 125 -20 170 -6 44 -9 70 -20 175 -3 28 -7 64 -10 80 -2 17 -7 50 -9 75 -6 57 -16 136 -21 175 -3 17 -7 55 -10 85 -7 68 -13 114 -20 160 -2 19 -7 60 -10 90 -3 30 -8 71 -10 90 -2 19 -6 54 -9 78 l-4 42 204 0 204 0 2 -27z m2376 -415 l2 -438 65 0 65 0 0 440 0 440 215 0 215 0 0 -409 c0 -343 -2 -413 -15 -437 -8 -16 -15 -36 -15 -45 0 -9 -7 -19 -15 -23 -8 -3 -15 -12 -15 -20 0 -15 -7 -19 -94 -64 -26 -13 -44 -28 -40 -33 3 -5 26 -19 52 -30 75 -34 94 -56 131 -154 12 -32 11 -584 -2 -635 -6 -28 -43 -101 -54 -109 -5 -3 -13 -15 -19 -26 -6 -11 -20 -25 -30 -30 -10 -6 -31 -18 -46 -28 -15 -10 -40 -21 -55 -24 -15 -3 -193 -8 -395 -10 l-368 -4 0 1034 c0 568 3 1037 7 1041 4 3 97 5 207 4 l201 -3 3 -437z m-4967 -151 c-1 -324 -2 -361 -18 -389 -25 -42 -65 -84 -88 -92 -11 -4 -33 -17 -48 -29 l-28 -23 28 -14 c15 -8 36 -21 46 -29 9 -8 27 -19 39 -25 23 -12 40 -39 58 -90 11 -31 16 -549 5 -566 -3 -5 -4 -14 -1 -19 3 -5 -5 -25 -19 -45 -14 -20 -25 -39 -25 -41 0 -13 -75 -76 -107 -90 -21 -9 -45 -20 -54 -25 -9 -4 -183 -9 -387 -10 l-372 -1 0 246 0 245 33 48 c18 26 116 166 217 311 l184 263 61 -4 60 -4 -3 103 c-3 81 -1 103 10 103 11 1 69 80 331 457 33 46 63 83 68 81 6 -2 10 -143 10 -361z"/>
 <path d="M4767 1663 c10 -216 12 -239 17 -298 6 -68 16 -217 21 -320 8 -166 16 -250 25 -259 12 -12 11 -17 16 79 2 44 6 112 9 150 3 39 8 108 10 155 5 108 13 224 20 320 4 41 8 109 9 150 1 41 6 87 10 103 l8 27 -75 0 -76 0 6 -107z"/>
 <path d="M6816 1673 c9 -175 15 -267 19 -318 5 -64 16 -232 20 -315 8 -163 16 -245 25 -254 11 -11 11 -14 16 69 2 33 6 98 9 145 3 47 7 123 10 170 5 86 10 170 20 315 3 44 7 114 9 155 1 41 6 87 10 103 l8 27 -75 0 -76 0 5 -97z"/>
 <path d="M7966 1678 c3 -51 6 -115 9 -143 5 -62 15 -225 21 -325 2 -41 6 -97 8 -125 7 -82 18 -279 18 -297 -1 -10 3 -18 9 -18 5 0 10 8 10 18 3 37 8 111 13 202 9 155 16 271 21 335 6 69 13 193 18 315 2 47 7 95 11 108 7 21 5 22 -67 22 l-75 0 4 -92z"/>
 <path d="M9135 1015 l0 -320 70 0 70 0 -3 315 c-2 173 -4 315 -5 316 -1 1 -31 3 -67 6 l-65 4 0 -321z"/>
 <path d="M3620 981 c0 -143 -2 -265 -5 -273 -4 -10 11 -13 70 -13 59 0 74 3 70 13 -3 8 -5 130 -5 273 l0 259 -65 0 -65 0 0 -259z"/>
 </g>
<g id="layer103" fill="#1c364f" stroke="none">
 <path d="M0 1615 l0 -1615 5120 0 5120 0 0 1614 0 1614 -5120 1 -5120 1 0 -1615z m4712 868 c1 -16 3 -53 4 -83 1 -30 5 -84 8 -120 4 -36 8 -94 10 -130 2 -36 5 -71 5 -78 1 -10 23 -12 92 -10 l91 3 4 55 c2 30 6 93 9 140 9 143 14 184 23 215 l8 30 203 3 203 2 -7 -37 c-7 -37 -10 -54 -20 -138 -11 -95 -14 -123 -20 -165 -6 -46 -10 -80 -19 -160 -3 -25 -8 -63 -11 -85 -3 -22 -8 -56 -10 -75 -5 -49 -13 -117 -20 -170 -6 -46 -11 -81 -19 -160 -3 -25 -8 -63 -11 -85 -3 -22 -8 -56 -10 -75 -5 -50 -16 -140 -21 -175 -4 -32 -11 -89 -19 -158 -2 -23 -7 -60 -10 -82 -3 -22 -8 -56 -10 -75 -6 -65 -17 -155 -21 -185 -3 -16 -6 -46 -9 -65 -2 -19 -6 -60 -10 -90 -4 -30 -7 -65 -7 -77 l0 -23 -289 0 -288 0 0 28 c0 28 -6 85 -16 162 -7 52 -14 109 -20 165 -6 54 -15 133 -21 170 -2 17 -6 50 -8 75 -5 47 -14 120 -22 180 -2 19 -6 55 -9 80 -5 52 -11 106 -20 170 -3 25 -8 65 -11 90 -2 25 -6 59 -8 75 -6 34 -13 96 -22 170 -3 28 -7 64 -9 80 -7 56 -16 130 -20 170 -2 22 -7 60 -10 85 -9 64 -15 118 -20 170 -3 25 -7 61 -9 80 -3 19 -7 56 -10 83 l-4 47 204 0 204 0 2 -27z m1536 -150 l2 -173 -179 0 -179 0 5 -22 c3 -13 10 -28 15 -35 5 -7 7 -17 4 -22 -4 -6 1 -27 9 -48 9 -21 17 -51 17 -66 1 -15 5 -30 10 -33 4 -3 6 -9 3 -14 -3 -5 -1 -19 5 -30 6 -12 12 -35 12 -51 1 -16 5 -32 10 -35 4 -3 6 -10 3 -15 -4 -5 -3 -15 1 -21 5 -7 9 -19 11 -28 4 -25 21 -93 31 -127 6 -17 8 -34 5 -37 -3 -3 -1 -12 5 -19 7 -8 9 -17 6 -20 -3 -3 -2 -12 2 -19 8 -13 14 -41 15 -70 0 -10 4 -20 9 -23 5 -3 7 -12 4 -19 -3 -8 -1 -17 5 -20 6 -4 8 -13 5 -20 -3 -8 -1 -17 5 -21 6 -3 11 -20 11 -36 0 -17 5 -39 11 -50 6 -11 11 -34 11 -50 1 -16 5 -32 10 -35 4 -3 6 -9 4 -13 -3 -4 0 -25 6 -47 6 -21 11 -44 10 -51 -2 -6 2 -14 7 -18 6 -3 8 -12 5 -19 -3 -8 -1 -17 5 -20 6 -4 8 -13 5 -20 -3 -8 -1 -17 5 -20 6 -4 8 -13 5 -20 -3 -8 -1 -17 5 -20 6 -4 8 -13 4 -21 -3 -9 0 -22 7 -29 6 -8 12 -29 12 -46 1 -17 5 -33 10 -36 4 -3 6 -9 3 -14 -3 -5 1 -28 10 -52 10 -29 15 -83 15 -170 l0 -128 -380 0 -380 0 2 172 3 173 145 2 c80 1 149 2 154 3 5 0 3 6 -3 14 -7 8 -13 29 -13 46 -1 17 -5 33 -10 36 -4 3 -6 10 -2 15 3 5 0 26 -7 47 -7 20 -12 42 -11 49 1 6 -2 14 -7 18 -6 3 -8 12 -5 19 3 8 1 17 -5 21 -6 3 -11 21 -11 40 0 19 -4 36 -9 39 -8 5 -20 65 -22 108 0 10 -4 20 -9 23 -5 3 -7 12 -4 19 3 8 0 17 -5 21 -6 3 -9 10 -6 15 3 5 1 18 -5 29 -5 11 -11 33 -12 48 -1 15 -6 33 -10 40 -5 6 -10 26 -10 43 -1 17 -5 33 -10 36 -4 3 -6 9 -3 14 3 5 -2 29 -11 55 -8 26 -16 56 -16 68 -1 12 -6 27 -10 34 -5 6 -10 26 -10 43 -1 17 -5 33 -10 36 -4 3 -6 10 -2 15 3 5 0 26 -7 47 -7 20 -12 41 -11 46 2 4 -2 14 -8 20 -5 7 -7 16 -3 19 3 4 1 12 -4 19 -10 12 -20 57 -28 120 -2 15 -9 36 -14 46 -6 11 -8 22 -4 25 3 4 1 13 -5 20 -7 8 -9 17 -5 20 3 4 1 12 -4 19 -6 8 -11 83 -12 176 l-2 162 398 -2 398 -3 3 -172z m514 150 c1 -16 3 -50 4 -78 1 -27 5 -77 8 -110 4 -33 8 -94 10 -135 3 -41 5 -81 5 -88 1 -10 23 -12 92 -10 l90 3 5 60 c13 181 15 215 20 270 3 33 6 72 7 88 l2 27 209 0 208 0 -7 -37 c-10 -50 -16 -98 -30 -228 -8 -80 -13 -109 -19 -130 -12 -38 6 -47 100 -48 75 -2 88 0 85 13 -2 8 -5 35 -7 60 -2 25 -6 61 -8 80 -3 19 -8 60 -11 90 -11 95 -14 124 -19 163 l-4 37 204 0 c226 0 205 7 210 -70 1 -19 5 -75 9 -125 4 -49 8 -117 10 -150 5 -119 -7 -106 96 -103 l91 3 4 55 c3 30 7 82 10 115 6 69 15 207 16 248 l1 27 210 0 210 0 -7 -37 c-4 -21 -9 -56 -12 -78 -3 -22 -7 -56 -9 -75 -3 -19 -7 -51 -9 -70 -8 -67 -17 -145 -21 -175 -3 -16 -7 -52 -10 -80 -3 -27 -7 -63 -10 -80 -8 -55 -16 -119 -21 -165 -2 -25 -6 -58 -9 -75 -6 -43 -15 -122 -21 -175 -2 -25 -6 -58 -9 -75 -7 -49 -16 -118 -20 -155 -5 -49 -13 -117 -20 -170 -3 -25 -8 -65 -11 -90 -2 -25 -6 -58 -9 -75 -7 -54 -16 -119 -20 -155 -4 -44 -15 -135 -20 -175 -8 -59 -16 -130 -17 -153 l0 -22 -287 2 -286 3 -2 25 c-2 22 -4 48 -18 170 -2 19 -6 55 -10 80 -6 43 -11 86 -20 175 -2 22 -7 58 -10 80 -6 39 -11 85 -20 170 -2 22 -6 58 -9 80 -5 37 -11 86 -21 175 -2 19 -7 51 -9 70 -9 56 -27 227 -27 254 0 11 -4 27 -10 38 -9 16 -24 18 -134 18 l-123 0 -8 -32 c-4 -18 -9 -49 -11 -68 -2 -19 -5 -51 -8 -70 -2 -19 -7 -55 -9 -80 -3 -25 -8 -63 -11 -85 -6 -38 -8 -56 -20 -170 -3 -27 -8 -66 -11 -85 -7 -53 -13 -100 -18 -150 -3 -25 -8 -63 -11 -85 -3 -22 -8 -56 -10 -75 -12 -117 -16 -158 -21 -185 -3 -16 -6 -46 -9 -65 -2 -19 -6 -60 -10 -90 -4 -30 -7 -65 -7 -77 l0 -23 -289 0 -288 0 0 28 c0 28 -7 100 -15 162 -10 72 -17 126 -22 175 -5 55 -11 101 -18 155 -5 37 -15 121 -22 180 -2 19 -6 51 -8 70 -3 19 -8 60 -11 90 -11 105 -13 125 -20 170 -6 44 -9 70 -20 175 -3 28 -7 64 -10 80 -2 17 -7 50 -9 75 -6 57 -16 136 -21 175 -3 17 -7 55 -10 85 -7 68 -13 114 -20 160 -2 19 -7 60 -10 90 -3 30 -8 71 -10 90 -2 19 -6 54 -9 78 l-4 42 204 0 204 0 2 -27z m2376 -415 l2 -438 65 0 65 0 0 440 0 440 215 0 215 0 0 -409 c0 -343 -2 -413 -15 -437 -8 -16 -15 -36 -15 -45 0 -9 -7 -19 -15 -23 -8 -3 -15 -12 -15 -20 0 -15 -7 -19 -94 -64 -26 -13 -44 -28 -40 -33 3 -5 26 -19 52 -30 75 -34 94 -56 131 -154 12 -32 11 -584 -2 -635 -6 -28 -43 -101 -54 -109 -5 -3 -13 -15 -19 -26 -6 -11 -20 -25 -30 -30 -10 -6 -31 -18 -46 -28 -15 -10 -40 -21 -55 -24 -15 -3 -193 -8 -395 -10 l-368 -4 0 1034 c0 568 3 1037 7 1041 4 3 97 5 207 4 l201 -3 3 -437z m-4967 -154 c-1 -321 -2 -358 -18 -386 -25 -42 -65 -84 -88 -92 -11 -4 -33 -17 -48 -29 l-28 -23 28 -14 c15 -8 36 -21 46 -29 9 -8 27 -19 39 -25 23 -12 40 -39 58 -90 11 -31 16 -549 5 -566 -3 -5 -4 -14 -1 -19 3 -5 -5 -25 -19 -45 -14 -20 -25 -39 -25 -41 0 -13 -75 -76 -107 -90 -21 -9 -45 -20 -54 -25 -9 -4 -183 -9 -387 -10 l-372 -1 0 257 0 256 82 117 c45 64 113 161 152 216 38 55 97 138 129 184 l60 83 66 -4 66 -3 -3 96 -4 96 74 104 c41 57 132 186 203 287 99 140 131 179 137 167 5 -8 9 -175 9 -371z"/>
 <path d="M4767 1663 c10 -216 12 -239 17 -298 6 -68 16 -217 21 -320 8 -166 16 -250 25 -259 12 -12 11 -17 16 79 2 44 6 112 9 150 3 39 8 108 10 155 5 108 13 224 20 320 4 41 8 109 9 150 1 41 6 87 10 103 l8 27 -75 0 -76 0 6 -107z"/>
 <path d="M6816 1673 c9 -175 15 -267 19 -318 5 -64 16 -232 20 -315 8 -163 16 -245 25 -254 11 -11 11 -14 16 69 2 33 6 98 9 145 3 47 7 123 10 170 5 86 10 170 20 315 3 44 7 114 9 155 1 41 6 87 10 103 l8 27 -75 0 -76 0 5 -97z"/>
 <path d="M7966 1678 c3 -51 6 -115 9 -143 5 -62 15 -225 21 -325 2 -41 6 -97 8 -125 7 -82 18 -279 18 -297 -1 -10 3 -18 9 -18 5 0 10 8 10 18 3 37 8 111 13 202 9 155 16 271 21 335 6 69 13 193 18 315 2 47 7 95 11 108 7 21 5 22 -67 22 l-75 0 4 -92z"/>
 <path d="M9135 1015 l0 -320 70 0 70 0 -3 315 c-2 173 -4 315 -5 316 -1 1 -31 3 -67 6 l-65 4 0 -321z"/>
 <path d="M3620 981 c0 -143 -2 -265 -5 -273 -4 -10 11 -13 70 -13 59 0 74 3 70 13 -3 8 -5 130 -5 273 l0 259 -65 0 -65 0 0 -259z"/>
 </g>
<g id="layer104" fill="#fe4001" stroke="none">
 <path d="M0 1615 l0 -1615 5120 0 5120 0 0 1614 0 1614 -5120 1 -5120 1 0 -1615z m4714 843 c8 -70 26 -327 26 -361 l0 -27 90 0 c65 0 90 3 90 13 0 6 7 98 15 202 8 105 15 198 15 208 0 16 17 17 211 17 l212 0 -6 -27 c-3 -16 -60 -484 -128 -1040 l-124 -1013 -285 0 -286 0 -27 228 c-14 125 -45 378 -66 562 -126 1052 -151 1264 -151 1276 0 11 38 14 204 14 l205 0 5 -52z m1534 -125 l2 -173 -176 0 -176 0 6 -22 c3 -13 31 -126 61 -253 30 -126 91 -383 135 -570 156 -655 150 -623 150 -761 l0 -124 -380 0 -380 0 2 172 3 173 148 3 c135 2 148 4 143 20 -3 9 -21 82 -40 162 -62 265 -154 652 -223 930 l-67 275 -4 173 -3 172 398 -2 398 -3 3 -172z m515 135 c3 -24 11 -123 18 -220 l12 -178 89 0 c64 0 88 3 88 13 0 6 7 95 15 197 8 102 15 195 15 208 l0 22 211 0 211 0 -6 -37 c-9 -56 -46 -369 -46 -387 0 -13 15 -16 91 -16 l90 0 -6 43 c-9 71 -45 375 -45 386 0 8 65 11 204 11 l204 0 6 -27 c3 -16 11 -115 17 -220 l13 -193 88 0 c48 0 88 3 88 8 0 4 7 90 15 192 8 102 15 197 15 213 l0 27 210 0 c116 0 210 -1 210 -3 0 -2 -56 -462 -125 -1023 -69 -560 -125 -1027 -125 -1037 0 -16 -18 -17 -287 -15 l-288 3 -42 350 c-23 193 -56 472 -73 620 -18 149 -35 290 -39 315 l-6 45 -127 3 -126 3 -6 -28 c-3 -15 -40 -317 -83 -670 l-77 -643 -286 0 -285 0 -119 998 c-65 548 -121 1016 -124 1040 l-5 42 206 0 205 0 5 -42z m2375 -400 l2 -438 65 0 65 0 0 440 0 440 215 0 215 0 0 -407 c0 -237 -4 -423 -10 -443 -15 -55 -55 -102 -121 -142 l-61 -37 40 -20 c58 -30 100 -68 125 -115 21 -40 22 -50 22 -361 0 -241 -3 -329 -13 -358 -23 -65 -85 -132 -153 -166 l-62 -31 -379 0 -378 0 0 1040 0 1040 213 -2 212 -3 3 -437z m-4964 210 c11 -43 7 -679 -5 -719 -17 -53 -62 -105 -126 -141 l-54 -31 52 -29 c69 -37 93 -61 119 -115 20 -43 21 -58 18 -322 l-3 -276 -27 -52 c-31 -59 -98 -119 -161 -145 -37 -15 -86 -17 -419 -17 l-378 -1 0 250 0 249 87 123 c48 68 118 168 157 223 38 55 96 137 129 183 l58 82 65 0 64 0 0 95 0 95 73 102 c40 57 131 185 202 286 70 100 131 182 135 182 4 0 10 -10 14 -22z"/>
 <path d="M4763 1713 c3 -32 18 -253 34 -490 15 -238 31 -433 35 -433 4 0 8 9 8 19 0 18 27 449 50 791 5 80 10 151 10 158 0 8 -21 12 -71 12 l-72 0 6 -57z"/>
 <path d="M6813 1713 c4 -32 18 -251 33 -488 15 -236 31 -434 36 -440 4 -5 8 1 8 15 0 14 14 234 30 490 16 256 30 468 30 473 0 4 -32 7 -71 7 l-72 0 6 -57z"/>
 <path d="M7964 1718 c3 -29 17 -242 31 -473 25 -397 33 -484 41 -460 3 8 64 942 64 977 0 4 -32 8 -71 8 l-71 0 6 -52z"/>
 <path d="M9140 1015 l0 -315 65 0 65 0 0 315 0 315 -65 0 -65 0 0 -315z"/>
 <path d="M3620 970 l0 -270 65 0 65 0 0 270 0 270 -65 0 -65 0 0 -270z"/>
 </g>
<g id="layer105" fill="#d9562b" stroke="none">
 <path d="M0 1615 l0 -1615 4883 0 4884 0 12 28 c8 15 17 35 22 44 5 10 9 26 9 35 0 10 7 27 15 37 8 11 15 26 15 33 0 7 11 31 25 53 37 59 34 104 -11 146 l-35 34 33 -6 c103 -20 197 -81 270 -178 26 -36 60 -74 74 -85 24 -19 24 -20 6 -30 -15 -8 -33 -3 -81 19 -92 44 -112 40 -191 -36 -25 -23 -65 -54 -89 -67 l-43 -25 221 -1 221 -2 0 1615 0 1615 -1055 0 c-580 -1 -1057 -4 -1060 -8 -2 -5 7 -13 21 -19 50 -23 57 -90 14 -134 -36 -35 -36 -35 -9 -56 31 -26 29 -80 -5 -109 -25 -21 -36 -23 -109 -21 -77 3 -82 4 -88 28 -13 45 -10 254 3 283 12 24 18 26 83 29 39 2 -297 4 -745 5 -448 1 -818 -1 -822 -4 -5 -2 6 -14 24 -26 46 -31 68 -80 68 -150 0 -119 -54 -175 -165 -168 -33 1 -66 8 -72 13 -18 15 -18 301 0 316 7 6 33 12 57 14 25 2 -1401 5 -3167 6 l-3213 3 0 -1616z m4612 1518 c1 -49 1 -104 0 -123 -3 -51 15 -26 73 103 45 100 50 107 76 107 l29 0 0 -170 c0 -164 -1 -170 -20 -170 -32 0 -42 42 -34 145 4 56 3 86 -3 80 -5 -5 -31 -59 -58 -118 -48 -106 -49 -108 -79 -105 l-31 3 -3 168 -2 167 25 0 c25 0 25 -1 27 -87z m303 52 c17 -50 24 -55 74 -55 46 0 75 16 69 36 -6 21 24 54 47 54 14 0 25 -3 25 -7 0 -5 -23 -81 -52 -170 l-52 -163 -32 0 c-21 0 -34 6 -38 17 -4 9 -28 80 -53 157 -25 78 -48 147 -51 154 -3 10 3 13 24 10 22 -2 31 -10 39 -33z m385 20 c8 -10 11 -36 7 -77 -4 -61 -3 -66 44 -150 27 -48 49 -90 49 -93 0 -3 -13 -5 -29 -5 -26 0 -32 7 -60 65 -16 36 -34 65 -38 65 -5 0 -23 -29 -41 -65 -29 -58 -35 -65 -62 -65 -27 0 -29 2 -21 23 5 12 26 51 47 87 35 58 39 72 39 135 0 39 4 76 8 83 11 17 42 15 57 -3z m350 -4 c0 -24 -22 -32 -78 -27 -54 4 -61 -8 -53 -95 1 -12 12 -16 44 -15 38 1 42 -1 42 -24 0 -23 -3 -25 -42 -22 -38 3 -43 1 -49 -22 -3 -14 -3 -37 0 -50 5 -21 10 -23 51 -18 47 5 75 -8 75 -35 0 -11 -17 -13 -87 -11 l-88 3 -3 168 -2 167 95 0 c87 0 95 -2 95 -19z m240 -151 l0 -170 -25 0 -25 0 0 170 0 170 25 0 25 0 0 -170z m151 73 c1 -54 0 -108 -1 -120 -4 -51 21 -17 70 97 50 113 55 120 81 120 l29 0 0 -170 c0 -157 -1 -170 -18 -170 -10 0 -23 5 -30 12 -14 14 -16 114 -2 123 6 3 10 21 10 38 0 69 -16 56 -69 -58 -53 -113 -54 -115 -87 -115 l-34 0 0 170 0 170 25 0 c25 0 25 0 26 -97z m657 -70 l-3 -168 -25 0 -25 0 -1 150 c-1 179 0 185 32 185 l24 0 -2 -167z m129 127 c17 -44 37 -54 94 -48 29 3 37 9 53 46 15 32 25 42 43 42 13 0 23 -3 23 -7 0 -17 -93 -309 -102 -320 -6 -7 -23 -13 -38 -13 -28 0 -30 4 -79 156 -28 86 -51 163 -51 170 0 8 9 14 21 14 15 0 25 -11 36 -40z m453 14 c7 -17 7 -38 1 -61 -10 -36 -5 -93 9 -93 3 0 30 41 59 90 51 86 55 90 88 90 25 0 32 -3 27 -12 -4 -7 -29 -46 -56 -86 -26 -41 -48 -80 -48 -87 0 -8 20 -43 45 -78 25 -36 45 -68 45 -71 0 -3 -13 -6 -29 -6 -26 0 -35 9 -76 75 -26 41 -51 75 -55 75 -4 0 -8 -24 -8 -53 1 -28 -2 -62 -6 -75 -8 -23 -40 -30 -52 -11 -8 14 -8 304 1 319 12 20 45 10 55 -16z m280 -14 c15 -45 32 -53 96 -48 36 3 40 6 54 46 11 33 19 42 37 42 31 0 30 -10 -25 -185 l-48 -150 -34 0 -35 0 -47 139 c-65 191 -65 196 -35 196 19 0 26 -8 37 -40z m735 5 c17 -50 24 -55 73 -55 58 0 66 5 81 53 10 30 17 37 38 37 30 0 31 7 -33 -197 l-45 -143 -34 0 -34 0 -51 155 c-27 86 -50 163 -50 171 0 29 44 12 55 -21z m473 13 c3 -16 -5 -18 -62 -18 -36 0 -68 -4 -71 -10 -3 -5 26 -63 64 -128 39 -65 71 -128 71 -140 0 -22 -2 -23 -97 -20 -84 3 -98 6 -101 21 -3 15 5 17 62 17 37 0 66 4 66 10 0 5 -31 61 -69 123 -103 168 -103 169 31 165 89 -3 103 -5 106 -20z m115 -13 c15 -46 26 -55 71 -55 52 0 67 10 80 52 9 26 17 34 40 36 24 3 28 1 23 -15 -67 -218 -91 -291 -99 -306 -7 -13 -19 -17 -41 -15 -31 3 -32 4 -78 148 -55 168 -59 193 -27 188 14 -2 25 -14 31 -33z m307 -4 c11 -42 24 -51 75 -51 51 0 64 9 75 51 9 32 15 39 35 39 34 0 33 -10 -23 -185 l-48 -150 -35 0 -34 0 -56 168 -56 167 28 0 c24 0 30 -5 39 -39z m330 24 c9 -11 11 -34 7 -75 -4 -33 -4 -60 -1 -60 21 0 47 29 79 85 32 57 40 65 65 65 17 0 30 -2 30 -5 0 -3 -18 -34 -40 -69 -46 -72 -48 -82 -20 -91 30 -9 53 -61 46 -101 -11 -55 -46 -74 -137 -74 l-79 0 0 170 c0 160 1 170 19 170 10 0 24 -7 31 -15z m-8746 -721 c76 -24 146 -86 181 -160 l26 -55 -1 -345 c-1 -384 -3 -398 -66 -454 -19 -16 -53 -39 -75 -50 -22 -12 -39 -26 -36 -33 2 -7 21 -22 42 -34 53 -30 89 -65 117 -116 23 -42 23 -43 18 -317 l-5 -275 -29 -53 c-30 -54 -72 -94 -136 -128 -32 -18 -65 -19 -418 -22 l-382 -3 2 1028 3 1028 50 7 c28 3 185 5 350 4 263 -2 307 -5 359 -22z m814 -1012 l2 -1032 -202 2 -203 3 -2 1020 c-1 561 2 1025 7 1030 5 6 85 10 202 10 l193 0 3 -1033z m1140 1032 l22 -6 0 -549 0 -549 -228 0 c-164 0 -231 3 -240 12 -8 8 -12 46 -12 104 0 126 6 151 39 157 l26 6 0 283 0 283 -73 0 c-65 0 -73 -2 -78 -20 -2 -11 -3 -359 -2 -773 2 -553 6 -755 14 -760 7 -4 41 -6 75 -4 l64 3 0 217 0 217 208 3 207 2 0 -345 0 -345 -370 0 c-322 0 -375 2 -412 17 -70 27 -123 78 -160 151 l-33 67 5 810 5 810 27 46 c33 56 95 113 145 134 21 9 79 20 128 24 107 10 610 13 643 5z m1247 -23 c70 -28 165 -116 165 -153 0 -13 -26 -60 -57 -104 -32 -45 -85 -121 -118 -168 -145 -210 -188 -267 -199 -263 -8 3 -11 71 -13 228 l-1 224 -69 0 -68 0 -5 -351 -5 -351 -58 -84 c-187 -271 -333 -474 -342 -474 -7 0 -11 256 -13 744 -2 660 0 746 13 761 14 16 47 17 363 16 340 -1 348 -2 407 -25z m739 -23 c8 -70 26 -327 26 -361 l0 -27 90 0 c65 0 90 3 90 13 0 6 7 98 15 202 8 105 15 198 15 208 0 16 17 17 211 17 l212 0 -6 -27 c-3 -16 -60 -484 -128 -1040 l-124 -1013 -285 0 -286 0 -27 228 c-14 125 -45 378 -66 562 -126 1052 -151 1264 -151 1276 0 11 38 14 204 14 l205 0 5 -52z m1534 -125 l2 -173 -176 0 -176 0 6 -22 c3 -13 31 -126 61 -253 30 -126 91 -383 135 -570 156 -655 150 -623 150 -761 l0 -124 -380 0 -380 0 2 172 3 173 148 3 c135 2 148 4 143 20 -3 9 -21 82 -40 162 -62 265 -154 652 -223 930 l-67 275 -4 173 -3 172 398 -2 398 -3 3 -172z m515 135 c3 -24 11 -123 18 -220 l12 -178 89 0 c64 0 88 3 88 13 0 6 7 95 15 197 8 102 15 195 15 208 l0 22 211 0 211 0 -6 -37 c-9 -56 -46 -369 -46 -387 0 -13 15 -16 91 -16 l90 0 -6 43 c-9 71 -45 375 -45 386 0 8 65 11 204 11 l204 0 6 -27 c3 -16 11 -115 17 -220 l13 -193 88 0 c48 0 88 3 88 8 0 4 7 90 15 192 8 102 15 197 15 213 l0 27 210 0 c116 0 210 -1 210 -3 0 -2 -56 -462 -125 -1023 -69 -560 -125 -1027 -125 -1037 0 -16 -18 -17 -287 -15 l-288 3 -42 350 c-23 193 -56 472 -73 620 -18 149 -35 290 -39 315 l-6 45 -127 3 -126 3 -6 -28 c-3 -15 -40 -317 -83 -670 l-77 -643 -286 0 -285 0 -119 998 c-65 548 -121 1016 -124 1040 l-5 42 206 0 205 0 5 -42z m2375 -400 l2 -438 65 0 65 0 0 440 0 440 215 0 215 0 0 -407 c0 -237 -4 -423 -10 -443 -15 -55 -55 -102 -121 -142 l-61 -37 40 -20 c58 -30 100 -68 125 -115 21 -40 22 -50 22 -361 0 -241 -3 -329 -13 -358 -23 -65 -85 -132 -153 -166 l-62 -31 -379 0 -378 0 0 1040 0 1040 213 -2 212 -3 3 -437z m-4964 210 c11 -43 7 -679 -5 -719 -17 -53 -62 -105 -126 -141 l-54 -31 52 -29 c69 -37 93 -61 119 -115 20 -43 21 -58 18 -322 l-3 -276 -27 -52 c-31 -59 -98 -119 -161 -145 -37 -15 -86 -17 -419 -17 l-378 -1 0 250 0 249 87 123 c48 68 118 168 157 223 38 55 96 137 129 183 l58 82 65 0 64 0 0 95 0 95 73 102 c40 57 131 185 202 286 70 100 131 182 135 182 4 0 10 -10 14 -22z"/>
 <path d="M4955 3080 c-7 -11 24 -130 34 -130 10 0 33 69 26 79 -3 5 -1 12 5 16 5 3 10 15 10 26 0 15 -7 19 -34 19 -19 0 -38 -4 -41 -10z"/>
 <path d="M6864 3077 c-7 -19 29 -122 41 -120 10 2 34 83 35 116 0 13 -8 17 -35 17 -21 0 -38 -6 -41 -13z"/>
 <path d="M7598 3078 c-6 -18 26 -123 38 -123 10 0 32 60 36 102 3 26 0 28 -33 31 -24 2 -39 -2 -41 -10z"/>
 <path d="M8335 3081 c-7 -12 25 -131 36 -131 10 0 39 87 39 117 0 20 -5 23 -34 23 -19 0 -37 -4 -41 -9z"/>
 <path d="M8920 3072 c0 -30 30 -122 40 -122 10 0 31 68 33 109 2 23 -2 26 -35 29 -32 3 -38 0 -38 -16z"/>
 <path d="M9227 3083 c-7 -13 27 -126 39 -130 13 -4 24 31 30 95 l4 42 -34 0 c-19 0 -37 -3 -39 -7z"/>
 <path d="M9529 3028 c0 -2 -2 -27 -4 -55 l-3 -53 38 0 c44 0 70 20 70 55 0 33 -26 55 -66 55 -19 0 -34 -1 -35 -2z"/>
 <path d="M435 2244 c-6 -3 -9 -129 -8 -356 l2 -353 67 -3 c47 -2 70 1 75 10 13 20 11 665 -1 689 -9 15 -21 19 -68 18 -31 0 -61 -2 -67 -5z"/>
 <path d="M430 1245 c0 -3 -1 -128 -1 -277 l0 -273 67 -3 c47 -2 70 1 76 10 11 18 9 494 -2 524 -9 22 -15 24 -75 24 -36 0 -65 -2 -65 -5z"/>
 <path d="M4763 1713 c3 -32 18 -253 34 -490 15 -238 31 -433 35 -433 4 0 8 9 8 19 0 18 27 449 50 791 5 80 10 151 10 158 0 8 -21 12 -71 12 l-72 0 6 -57z"/>
 <path d="M6813 1713 c4 -32 18 -251 33 -488 15 -236 31 -434 36 -440 4 -5 8 1 8 15 0 14 14 234 30 490 16 256 30 468 30 473 0 4 -32 7 -71 7 l-72 0 6 -57z"/>
 <path d="M7964 1718 c3 -29 17 -242 31 -473 25 -397 33 -484 41 -460 3 8 64 942 64 977 0 4 -32 8 -71 8 l-71 0 6 -52z"/>
 <path d="M9140 1015 l0 -315 65 0 65 0 0 315 0 315 -65 0 -65 0 0 -315z"/>
 <path d="M3620 970 l0 -270 65 0 65 0 0 270 0 270 -65 0 -65 0 0 -270z"/>
 <path d="M6376 3158 c-11 -44 -7 -225 7 -235 17 -14 69 -5 90 16 23 22 34 136 18 184 -18 55 -103 80 -115 35z"/>
 <path d="M8014 3166 c-3 -7 -4 -33 -2 -57 3 -42 4 -44 38 -47 19 -2 44 3 54 11 25 18 24 74 -1 93 -24 18 -82 18 -89 0z"/>
 <path d="M8013 2973 l3 -48 39 0 c32 0 42 5 54 27 14 24 14 28 -3 47 -13 14 -31 21 -58 21 l-38 0 3 -47z"/>
 </g>
<g id="layer106" fill="#e65b2b" stroke="none">
 <path d="M0 1615 l0 -1615 4870 0 c4467 0 4873 1 4895 16 15 10 25 26 25 40 0 13 5 24 10 24 6 0 10 13 10 29 0 16 6 34 14 40 8 7 12 19 9 29 -2 10 9 32 26 51 31 34 37 63 25 109 -4 12 -13 22 -20 22 -8 0 -14 4 -14 10 0 5 -16 17 -37 25 -20 8 -34 18 -31 21 9 9 137 -25 165 -43 15 -10 30 -18 33 -17 21 4 123 -91 157 -146 23 -38 67 -80 83 -80 5 0 7 -7 4 -14 -8 -21 -77 -12 -113 14 -19 13 -45 20 -73 20 -38 0 -50 -7 -103 -56 -33 -31 -78 -64 -100 -74 l-40 -17 222 -2 223 -2 0 1616 0 1615 -302 -2 c-167 -1 -287 -3 -267 -5 l37 -4 -16 -32 c-8 -18 -28 -47 -44 -65 -31 -36 -37 -64 -12 -60 9 2 21 -6 28 -17 6 -11 15 -23 19 -26 4 -3 7 -26 6 -50 -2 -35 -8 -50 -33 -72 -29 -25 -37 -27 -111 -26 l-80 1 0 175 0 174 30 -3 30 -3 -1 -72 c-1 -40 1 -73 5 -73 14 0 51 32 51 44 0 7 9 25 21 40 11 14 17 26 13 26 -5 0 -3 5 4 12 32 32 14 37 -130 36 -79 -1 -128 -4 -110 -6 38 -4 38 -4 13 -74 -38 -110 -42 -124 -47 -158 -3 -19 -11 -48 -19 -64 -8 -16 -15 -35 -15 -43 0 -9 -13 -13 -41 -13 -22 0 -38 4 -35 9 3 5 -1 14 -9 21 -8 7 -15 23 -15 36 0 14 -4 32 -9 42 -12 24 -59 179 -58 192 0 3 -5 15 -11 27 -11 20 -10 22 20 25 18 2 -52 4 -157 4 -104 0 -172 -2 -150 -5 35 -5 40 -9 43 -36 5 -45 15 -50 76 -47 51 4 57 6 62 30 10 49 13 52 44 52 30 0 31 -1 25 -32 -4 -18 -11 -37 -16 -43 -5 -5 -9 -23 -9 -40 0 -17 -4 -35 -9 -40 -10 -12 -49 -130 -53 -165 -3 -21 -8 -24 -43 -26 -44 -1 -55 8 -55 46 0 15 -4 30 -9 35 -6 8 -28 74 -37 115 -1 5 -7 22 -21 58 -4 9 -7 24 -9 32 -9 68 -17 71 -211 68 -92 -1 -154 -4 -137 -6 l31 -3 -17 -62 c-9 -34 -20 -71 -24 -82 -4 -11 -13 -33 -19 -50 -7 -16 -10 -34 -9 -39 2 -6 -1 -19 -7 -30 -5 -12 -15 -36 -23 -53 -11 -29 -17 -33 -50 -33 -35 0 -38 2 -38 29 0 17 -5 33 -10 36 -5 3 -10 17 -10 30 0 13 -4 26 -8 29 -5 3 -14 30 -21 60 -7 31 -17 58 -22 61 -5 4 -9 16 -9 29 0 12 -5 27 -11 33 -16 16 -4 43 19 43 25 0 54 -33 50 -57 -3 -15 6 -19 55 -23 32 -3 64 -2 70 2 7 4 9 8 5 8 -4 0 -1 12 7 27 25 47 10 52 -161 52 -97 0 -154 -3 -154 -10 0 -5 8 -13 18 -16 27 -10 38 -31 41 -75 2 -40 -22 -78 -49 -78 -15 0 -12 -20 4 -26 35 -13 40 -120 7 -131 -9 -2 -24 -9 -33 -14 -10 -5 -51 -9 -92 -9 l-73 0 -7 46 c-8 60 -8 232 0 272 l6 31 77 4 c42 1 -12 3 -119 3 -107 0 -180 -2 -162 -4 29 -3 32 -6 26 -30 -3 -15 -13 -42 -21 -60 -8 -19 -12 -36 -9 -39 3 -3 -4 -23 -14 -44 -11 -21 -20 -49 -20 -63 0 -14 -4 -28 -10 -31 -5 -3 -10 -18 -10 -33 0 -40 -11 -50 -55 -48 -39 1 -40 2 -47 45 -4 24 -14 54 -23 67 -8 13 -15 33 -15 44 0 11 -4 28 -9 38 -9 18 -36 102 -36 114 0 3 -3 10 -7 14 -15 15 -8 23 25 26 17 2 -158 5 -390 5 l-423 2 -1 -32 c-1 -18 -1 -98 1 -179 l2 -147 -38 2 c-33 2 -38 5 -35 22 6 38 6 180 -1 214 -4 19 -4 40 0 45 3 6 5 23 3 38 -2 23 2 27 31 30 18 2 -20 5 -84 6 -70 1 -119 -2 -123 -8 -3 -5 3 -10 15 -10 11 0 23 -7 26 -15 4 -8 12 -15 20 -15 7 0 16 -16 20 -35 3 -19 10 -38 15 -41 16 -10 9 -99 -10 -141 -11 -22 -36 -52 -55 -66 -30 -24 -44 -27 -111 -27 l-75 0 2 173 3 172 55 6 c41 4 31 6 -40 5 l-95 -1 -3 -177 -2 -178 -37 0 -36 0 6 123 c5 92 3 116 -5 97 -32 -74 -71 -157 -79 -170 -5 -8 -12 -23 -15 -32 -5 -13 -17 -18 -40 -18 l-34 0 0 175 0 175 31 0 31 0 -4 -120 c-2 -66 -1 -120 3 -120 4 0 14 19 24 43 9 23 16 42 14 42 -2 0 6 18 18 40 12 22 28 57 37 77 13 30 22 37 49 40 17 2 -141 4 -353 4 -212 0 -339 -2 -282 -3 l103 -4 -3 -26 c-3 -24 -7 -26 -40 -26 -21 1 -40 2 -43 3 -3 1 -15 3 -27 3 -19 1 -24 -5 -28 -33 -3 -19 -4 -45 -2 -56 3 -19 9 -21 42 -17 48 7 78 -3 62 -19 -6 -6 -8 -17 -5 -25 5 -13 -2 -14 -45 -8 l-52 7 0 -49 0 -48 61 0 c60 0 62 -1 65 -28 l3 -28 -100 3 -99 2 0 178 0 177 -362 -2 c-200 0 -349 -3 -331 -5 l32 -3 3 -174 3 -173 -34 0 -34 0 7 122 c8 129 2 138 -30 49 -10 -29 -22 -53 -26 -53 -4 0 -8 -5 -8 -12 0 -7 -10 -33 -22 -59 -21 -43 -26 -47 -60 -47 l-38 -1 0 175 0 174 30 0 30 0 2 -87 c1 -49 1 -103 0 -121 -1 -19 3 -30 8 -27 6 3 10 13 10 22 0 8 9 26 20 40 11 14 20 34 20 44 0 10 5 21 10 24 6 3 10 14 10 24 0 10 7 24 15 31 8 7 15 23 15 36 l0 24 -2360 0 -2360 0 0 -1615z m4918 1564 c18 -41 18 -42 71 -42 53 0 54 1 67 39 8 22 14 40 14 42 0 1 15 2 34 2 34 0 34 0 26 -35 -4 -20 -14 -43 -22 -52 -7 -9 -12 -19 -11 -22 3 -10 -7 -55 -18 -73 -5 -10 -9 -26 -9 -36 0 -10 -3 -22 -7 -26 -4 -3 -8 -16 -10 -28 -2 -12 -7 -25 -11 -28 -4 -3 -7 -11 -8 -17 -1 -7 -2 -17 -2 -21 -3 -13 -82 -11 -81 2 1 6 0 18 -4 26 -3 8 -13 40 -23 70 -10 30 -22 59 -26 65 -4 5 -8 19 -8 31 0 13 -4 26 -10 29 -5 3 -10 19 -10 35 0 16 -4 32 -10 35 -5 3 -10 15 -10 26 0 14 7 19 25 19 21 0 29 -8 43 -41z m388 -41 c0 -42 6 -83 12 -91 7 -8 9 -17 5 -20 -3 -4 -2 -7 4 -7 6 0 13 -8 16 -17 7 -22 50 -98 66 -117 9 -11 3 -14 -34 -14 -39 -1 -45 1 -45 19 0 12 -8 33 -19 47 -10 15 -20 36 -22 46 -6 28 -26 31 -34 4 -4 -13 -16 -44 -28 -69 -21 -44 -23 -46 -66 -46 -36 0 -41 2 -27 12 9 7 16 18 17 26 0 8 9 28 20 44 10 17 24 41 31 55 7 14 17 28 23 32 5 4 10 40 10 80 0 85 7 100 43 96 27 -3 27 -4 28 -80z m594 -92 l0 -174 -35 0 -35 0 0 174 0 174 35 0 35 0 0 -174z m931 134 l12 -41 61 3 61 3 5 35 c5 32 8 35 43 38 38 3 46 -5 25 -26 -6 -6 -11 -25 -10 -41 0 -17 -4 -33 -9 -36 -5 -4 -9 -15 -9 -26 0 -10 -4 -28 -10 -39 -5 -11 -14 -29 -20 -40 -5 -11 -10 -31 -10 -45 0 -14 -4 -33 -9 -43 -5 -9 -12 -24 -14 -33 -4 -12 -17 -16 -46 -16 -23 0 -38 4 -35 9 6 9 -1 30 -27 80 -5 10 -9 25 -9 33 0 8 -4 23 -9 33 -5 9 -18 46 -29 82 -11 36 -23 75 -26 88 -7 19 -4 22 23 22 27 0 32 -5 42 -40z m455 10 c1 -14 -1 -40 -6 -57 -5 -19 -4 -35 1 -39 5 -3 6 -16 3 -30 -9 -35 12 -30 24 6 6 16 22 45 36 63 15 19 26 38 26 42 0 21 36 45 67 45 18 0 33 -2 33 -4 0 -12 -55 -102 -66 -109 -8 -4 -14 -14 -14 -21 0 -8 -7 -19 -15 -26 -21 -17 -19 -44 6 -66 12 -10 25 -28 30 -39 5 -11 20 -34 33 -50 l25 -31 -44 -1 c-25 -1 -45 3 -45 8 0 16 -80 149 -89 149 -5 0 -9 -28 -10 -62 -1 -35 -2 -70 -2 -79 0 -10 -11 -15 -32 -16 l-32 -1 2 152 c1 83 2 161 3 174 0 20 4 23 32 20 25 -2 32 -8 34 -28z m1484 21 c0 -5 3 -16 6 -25 5 -14 -5 -16 -70 -16 -73 0 -86 -5 -67 -25 5 -6 18 -26 29 -45 11 -19 40 -69 66 -111 69 -115 68 -117 -61 -118 -59 -1 -104 1 -100 5 3 4 2 15 -4 25 -9 18 -5 19 61 19 72 0 89 12 55 40 -8 7 -15 19 -15 26 0 8 -4 14 -8 14 -5 0 -20 21 -33 48 -13 26 -32 56 -41 66 -10 11 -18 25 -18 32 0 6 -7 17 -15 24 -11 9 -12 16 -5 25 5 6 7 15 3 18 -3 4 44 7 105 7 62 0 112 -4 112 -9z m-8095 -710 c50 -5 107 -15 129 -23 39 -13 126 -88 126 -107 0 -6 3 -11 8 -11 4 0 13 -15 20 -32 7 -18 18 -41 23 -50 5 -10 9 -165 9 -356 0 -313 -1 -341 -19 -378 -28 -57 -70 -97 -133 -127 -42 -20 -48 -36 -18 -44 11 -3 20 -9 20 -13 0 -5 9 -12 21 -15 29 -9 109 -94 109 -116 0 -10 5 -21 10 -24 6 -4 10 -99 10 -253 -1 -251 -7 -302 -42 -368 -19 -35 -96 -105 -136 -124 -15 -7 -34 -16 -43 -20 -13 -7 -542 -16 -619 -11 -8 1 -43 1 -77 2 l-63 0 0 1033 c0 568 2 1035 4 1037 9 9 574 9 661 0z m925 -1030 l0 -1041 -210 2 -211 3 2 780 c1 429 1 895 -1 1035 l-2 255 211 3 211 4 0 -1041z m1120 1034 l35 -6 0 -555 0 -554 -243 0 -244 0 3 145 4 145 30 0 30 0 0 283 0 282 -70 0 -70 0 2 -714 c2 -431 -1 -718 -6 -725 -12 -15 -6 -106 7 -115 5 -3 39 -5 73 -3 l64 3 -3 222 -3 222 213 0 213 0 0 -353 0 -352 -372 0 c-237 0 -374 4 -378 10 -3 6 -14 10 -24 10 -31 0 -66 23 -130 87 -42 43 -61 69 -61 87 0 13 -4 28 -10 31 -15 9 -14 1568 2 1614 20 63 33 91 40 91 5 0 8 5 8 11 0 13 61 79 73 79 4 0 20 8 34 18 15 9 42 22 61 27 40 11 669 21 722 10z m1259 -20 c29 -10 55 -25 58 -32 3 -7 11 -13 19 -13 8 0 14 -4 14 -10 0 -5 6 -10 13 -10 13 -1 65 -77 84 -125 16 -41 18 -682 2 -736 -17 -53 -62 -105 -126 -141 l-54 -31 52 -29 c69 -37 93 -61 119 -115 20 -43 21 -58 18 -322 l-3 -276 -27 -52 c-31 -59 -98 -119 -161 -145 -37 -15 -86 -17 -419 -17 l-378 -1 0 1039 0 1039 367 -2 c331 -2 373 -4 422 -21z m735 -27 c8 -70 26 -327 26 -361 l0 -27 90 0 c65 0 90 3 90 13 0 6 7 98 15 202 8 105 15 198 15 208 0 16 17 17 211 17 l212 0 -6 -27 c-3 -16 -60 -484 -128 -1040 l-124 -1013 -285 0 -286 0 -27 228 c-14 125 -45 378 -66 562 -126 1052 -151 1264 -151 1276 0 11 38 14 204 14 l205 0 5 -52z m1534 -125 l2 -173 -176 0 -176 0 6 -22 c3 -13 31 -126 61 -253 30 -126 91 -383 135 -570 156 -655 150 -623 150 -761 l0 -124 -380 0 -380 0 2 172 3 173 148 3 c135 2 148 4 143 20 -3 9 -21 82 -40 162 -62 265 -154 652 -223 930 l-67 275 -4 173 -3 172 398 -2 398 -3 3 -172z m515 135 c3 -24 11 -123 18 -220 l12 -178 89 0 c64 0 88 3 88 13 0 6 7 95 15 197 8 102 15 195 15 208 l0 22 211 0 211 0 -6 -37 c-9 -56 -46 -369 -46 -387 0 -13 15 -16 91 -16 l90 0 -6 43 c-9 71 -45 375 -45 386 0 8 65 11 204 11 l204 0 6 -27 c3 -16 11 -115 17 -220 l13 -193 88 0 c48 0 88 3 88 8 0 4 7 90 15 192 8 102 15 197 15 213 l0 27 210 0 c116 0 210 -1 210 -3 0 -2 -56 -462 -125 -1023 -69 -560 -125 -1027 -125 -1037 0 -16 -18 -17 -287 -15 l-288 3 -42 350 c-23 193 -56 472 -73 620 -18 149 -35 290 -39 315 l-6 45 -127 3 -126 3 -6 -28 c-3 -15 -40 -317 -83 -670 l-77 -643 -286 0 -285 0 -119 998 c-65 548 -121 1016 -124 1040 l-5 42 206 0 205 0 5 -42z m2375 -400 l2 -438 65 0 65 0 0 440 0 440 215 0 215 0 0 -407 c0 -237 -4 -423 -10 -443 -15 -55 -55 -102 -121 -142 l-61 -37 40 -20 c58 -30 100 -68 125 -115 21 -40 22 -50 22 -361 0 -241 -3 -329 -13 -358 -23 -65 -85 -132 -153 -166 l-62 -31 -379 0 -378 0 0 1040 0 1040 213 -2 212 -3 3 -437z"/>
 <path d="M4954 3079 c-3 -6 -2 -21 4 -32 6 -12 13 -39 17 -59 3 -21 10 -38 14 -38 10 0 25 48 22 72 -1 9 3 19 9 23 5 3 10 15 10 26 0 15 -7 19 -34 19 -19 0 -38 -5 -42 -11z"/>
 <path d="M6869 3083 c-3 -19 4 -59 11 -68 4 -5 10 -20 12 -33 6 -41 22 -24 34 35 7 32 13 61 13 66 1 4 -15 7 -34 7 -19 0 -35 -3 -36 -7z"/>
 <path d="M435 2244 c-6 -3 -9 -129 -8 -356 l2 -353 69 -3 c67 -3 70 -2 74 22 3 13 1 31 -4 40 -8 15 -6 487 3 586 5 62 -3 70 -68 69 -32 0 -62 -2 -68 -5z"/>
 <path d="M430 1243 c0 -2 -1 -126 -1 -275 l0 -273 69 -3 c57 -2 71 0 76 14 3 9 3 22 -2 28 -14 18 -16 360 -2 386 8 15 8 25 1 34 -6 7 -9 29 -7 49 l5 35 -70 4 c-38 2 -69 2 -69 1z"/>
 <path d="M3617 2244 c-4 -4 -7 -164 -7 -356 l0 -348 70 0 70 0 0 98 c0 53 1 212 1 352 l0 255 -63 3 c-35 2 -67 0 -71 -4z"/>
 <path d="M3620 970 l0 -270 65 0 65 0 0 270 0 270 -65 0 -65 0 0 -270z"/>
 <path d="M4763 1713 c3 -32 18 -253 34 -490 15 -238 31 -433 35 -433 4 0 8 9 8 19 0 18 27 449 50 791 5 80 10 151 10 158 0 8 -21 12 -71 12 l-72 0 6 -57z"/>
 <path d="M6813 1713 c4 -32 18 -251 33 -488 15 -236 31 -434 36 -440 4 -5 8 1 8 15 0 14 14 234 30 490 16 256 30 468 30 473 0 4 -32 7 -71 7 l-72 0 6 -57z"/>
 <path d="M7964 1718 c3 -29 17 -242 31 -473 25 -397 33 -484 41 -460 3 8 64 942 64 977 0 4 -32 8 -71 8 l-71 0 6 -52z"/>
 <path d="M9140 1015 l0 -315 65 0 65 0 0 315 0 315 -65 0 -65 0 0 -315z"/>
 <path d="M7564 3208 c3 -13 6 -33 6 -45 0 -19 7 -22 58 -25 66 -5 82 7 82 59 l0 33 -76 0 c-74 0 -76 -1 -70 -22z"/>
 <path d="M9193 3189 c3 -22 8 -43 11 -46 5 -5 117 -6 121 -1 1 2 5 22 9 46 l6 42 -76 0 -77 0 6 -41z"/>
 <path d="M6375 3152 c-9 -37 -4 -215 7 -229 13 -16 70 -5 91 19 28 29 34 142 10 188 -15 30 -25 36 -60 41 -38 5 -42 3 -48 -19z"/>
 <path d="M8013 3164 c-2 -7 -3 -31 -1 -55 3 -43 4 -44 38 -45 67 -1 91 32 61 82 -13 21 -24 27 -55 28 -21 1 -41 -4 -43 -10z"/>
 <path d="M7598 3078 c-3 -7 2 -29 10 -48 8 -19 15 -43 16 -53 2 -27 21 -25 24 3 2 14 8 30 12 35 4 6 10 24 12 40 3 28 1 30 -33 33 -24 2 -39 -2 -41 -10z"/>
 <path d="M8335 3080 c-3 -5 -2 -18 3 -27 5 -10 13 -37 17 -60 4 -24 11 -43 15 -43 9 0 23 43 36 108 6 31 6 32 -29 32 -20 0 -39 -4 -42 -10z"/>
 <path d="M8925 3048 c4 -24 11 -47 16 -52 5 -6 9 -18 9 -28 0 -10 5 -18 10 -18 6 0 10 13 10 28 0 15 4 32 9 38 5 5 11 23 13 39 3 28 1 30 -35 33 l-39 3 7 -43z"/>
 <path d="M9227 3084 c-6 -6 -2 -24 13 -59 5 -11 10 -31 12 -44 2 -14 8 -26 15 -28 12 -4 21 28 28 96 4 41 4 41 -29 41 -18 0 -35 -3 -39 -6z"/>
 <path d="M9529 3028 c0 -2 -2 -27 -4 -57 l-4 -53 46 5 c48 5 63 18 63 53 0 29 -31 54 -68 54 -18 0 -32 -1 -33 -2z"/>
 <path d="M8013 2974 c2 -30 8 -49 15 -48 7 1 26 2 42 3 22 1 34 8 42 26 15 34 -5 55 -61 62 l-41 6 3 -49z"/>
 </g>
<g id="layer107" fill="#ed754d" stroke="none">
 <path d="M0 1615 l0 -1615 4874 0 c4708 0 4873 1 4889 18 10 10 17 26 17 34 0 9 7 21 15 28 8 7 12 16 9 22 -3 5 1 20 10 33 9 13 16 33 16 43 0 11 8 30 18 43 59 79 45 140 -42 177 -16 7 -26 15 -23 19 9 8 123 -17 172 -37 54 -23 138 -100 186 -172 22 -32 46 -58 53 -58 20 0 36 -24 26 -39 -10 -18 -67 -17 -89 2 -54 46 -129 45 -174 -3 -16 -16 -49 -44 -73 -62 -24 -17 -44 -35 -44 -40 0 -4 90 -8 200 -8 l200 0 0 1615 0 1615 -302 -2 c-167 -1 -286 -4 -265 -6 20 -2 37 -7 37 -11 0 -4 -18 -33 -40 -64 -22 -30 -40 -58 -40 -62 0 -3 14 -18 30 -32 26 -22 30 -31 30 -76 0 -29 -4 -58 -9 -65 -18 -28 -64 -42 -142 -42 l-79 0 0 176 0 175 33 -3 32 -3 0 -62 c1 -34 4 -66 8 -70 9 -8 56 45 57 63 0 6 9 23 20 37 11 14 20 30 20 36 0 7 -48 10 -142 9 -79 -1 -128 -4 -110 -6 17 -2 32 -5 32 -7 0 -10 -32 -124 -44 -160 -8 -22 -24 -73 -36 -113 l-21 -73 -42 3 c-40 3 -42 5 -52 45 -6 23 -13 45 -18 49 -4 4 -7 16 -7 26 0 10 -4 26 -9 36 -4 9 -19 51 -31 92 -13 41 -25 80 -28 87 -2 7 10 13 30 15 18 2 -131 4 -332 4 -201 0 -350 -2 -332 -4 17 -2 32 -4 32 -6 0 -1 -6 -22 -14 -47 -7 -24 -24 -78 -36 -119 -13 -41 -27 -84 -31 -95 -4 -11 -11 -35 -14 -52 -6 -31 -9 -33 -49 -33 -43 0 -43 0 -56 48 -6 26 -15 56 -20 67 -16 43 -70 214 -70 224 0 6 13 11 30 11 31 0 50 -22 50 -60 0 -19 5 -21 58 -18 55 3 57 4 68 38 7 19 10 38 8 42 -3 4 -74 7 -158 7 l-154 1 29 -29 c22 -23 29 -39 29 -69 0 -55 -8 -72 -39 -84 l-26 -9 28 -21 c20 -14 27 -28 26 -51 -1 -75 -35 -97 -149 -97 l-77 0 -7 46 c-8 60 -8 232 0 272 l6 31 77 4 c42 1 -12 3 -119 3 -107 0 -180 -2 -162 -4 32 -3 33 -5 27 -35 -6 -29 -56 -190 -76 -242 -4 -11 -10 -33 -14 -48 -5 -26 -9 -28 -48 -25 -33 2 -43 7 -45 23 -2 11 -9 34 -17 50 -7 17 -16 44 -20 60 -4 17 -10 39 -15 50 -4 11 -15 47 -25 80 -10 33 -20 65 -22 72 -3 7 8 13 29 15 18 2 -3 4 -47 4 -44 0 -61 -1 -37 -3 47 -5 51 -12 22 -38 -11 -10 -20 -23 -20 -29 0 -6 -18 -34 -40 -63 -45 -60 -46 -53 28 -160 l43 -63 -46 0 c-25 0 -45 5 -45 11 0 12 -87 149 -94 149 -3 0 -4 -35 -3 -77 l2 -78 -35 -3 -35 -3 2 153 c1 84 2 163 3 176 0 20 4 23 33 20 l32 -3 0 -87 c-1 -90 5 -99 30 -45 15 33 26 53 57 99 10 15 18 32 18 37 0 6 -123 10 -340 10 l-340 0 0 -180 0 -180 -36 3 -37 3 1 150 c0 210 -3 193 35 197 17 2 -21 5 -85 6 -65 1 -118 0 -118 -3 0 -2 13 -11 30 -20 45 -23 72 -94 68 -177 -6 -114 -54 -156 -181 -157 l-77 -1 2 173 3 172 55 6 c41 4 31 6 -40 5 l-95 -1 -3 -177 -2 -178 -37 0 -36 0 6 118 c4 90 3 111 -5 92 -24 -55 -80 -176 -87 -190 -5 -8 -24 -16 -45 -18 l-36 -3 0 175 0 176 31 0 31 0 -4 -119 c-2 -66 -1 -118 3 -116 3 3 12 19 19 37 19 50 40 98 65 148 18 37 28 46 56 51 19 3 -139 5 -351 5 -212 0 -339 -2 -282 -3 l103 -4 -3 -26 c-3 -26 -5 -27 -70 -27 l-68 -1 0 -47 0 -47 53 -3 c48 -3 52 -5 52 -28 0 -23 -4 -25 -52 -28 l-53 -3 0 -42 0 -42 63 0 c60 0 62 -1 65 -27 l3 -28 -100 0 -101 0 0 179 0 180 -362 -2 c-200 0 -349 -3 -331 -5 l32 -3 3 -175 3 -174 -34 0 -34 0 7 118 c8 124 1 135 -29 47 -9 -27 -30 -76 -47 -107 -29 -55 -33 -58 -69 -58 l-39 0 0 175 0 175 30 0 30 0 2 -87 c1 -49 1 -103 0 -121 -1 -19 3 -30 8 -27 6 3 10 13 10 21 0 8 4 22 9 32 19 34 81 180 81 188 0 2 -1062 4 -2360 4 l-2360 0 0 -1615z m4921 1565 l12 -40 54 0 c53 0 53 0 69 40 14 36 20 40 50 40 19 0 34 -3 34 -7 0 -5 -11 -39 -24 -78 -13 -38 -34 -104 -47 -145 -36 -119 -37 -120 -78 -120 l-36 1 -53 162 c-29 89 -53 168 -53 175 1 7 14 12 31 12 25 0 31 -5 41 -40z m385 -42 c0 -55 5 -83 16 -95 9 -10 25 -38 37 -63 11 -25 30 -60 42 -77 l21 -33 -45 0 c-44 0 -45 1 -65 48 -11 26 -23 57 -27 70 -7 23 -25 31 -25 10 0 -7 -12 -39 -27 -70 -28 -57 -29 -57 -71 -58 l-44 0 33 58 c91 163 91 163 84 223 -3 30 -2 58 2 63 4 4 21 6 38 4 l30 -3 1 -77z m594 -93 l0 -175 -35 0 -35 0 0 175 0 175 35 0 35 0 0 -175z m930 156 c5 -11 10 -29 10 -40 0 -19 6 -21 54 -21 57 0 72 9 78 50 2 21 9 25 42 28 33 3 38 1 32 -13 -3 -9 -9 -29 -12 -43 -3 -15 -18 -65 -34 -112 -15 -47 -33 -106 -40 -132 -13 -48 -13 -48 -55 -48 l-42 0 -18 63 c-9 34 -21 71 -25 82 -11 28 -60 190 -60 198 0 17 60 6 70 -12z m1948 -8 c3 -22 1 -23 -74 -23 -72 0 -76 -1 -62 -17 8 -10 18 -25 22 -33 3 -8 15 -28 26 -45 11 -16 27 -43 35 -60 9 -16 24 -43 35 -60 10 -16 19 -42 19 -57 l1 -28 -105 0 c-58 0 -105 4 -105 9 0 5 -3 16 -6 25 -5 14 4 16 65 16 71 0 84 7 56 30 -8 7 -15 17 -15 23 0 5 -11 25 -25 43 -14 18 -25 37 -25 42 0 5 -12 27 -28 48 -40 57 -55 91 -47 103 4 8 43 11 118 9 108 -3 112 -4 115 -25z m110 -3 c6 -40 21 -50 77 -50 53 0 53 0 62 38 8 33 12 37 44 40 l36 3 -13 -53 c-8 -29 -25 -84 -38 -123 -13 -38 -30 -92 -38 -120 -14 -49 -15 -50 -55 -53 l-41 -3 -23 73 c-26 84 -74 235 -85 261 -6 16 -2 18 32 15 33 -3 40 -7 42 -28z m-8105 -699 c49 -16 122 -65 145 -99 10 -15 28 -51 40 -81 21 -51 22 -67 22 -393 0 -300 -2 -344 -17 -376 -23 -47 -81 -104 -132 -127 -23 -10 -41 -22 -41 -26 0 -4 19 -17 43 -29 61 -30 125 -94 138 -138 7 -25 10 -128 7 -307 l-3 -270 -28 -47 c-41 -71 -107 -130 -166 -151 -46 -16 -90 -18 -399 -18 -191 0 -355 0 -364 0 -17 1 -18 57 -18 1034 0 569 3 1036 6 1040 12 11 727 0 767 -12z m817 -1020 l0 -1041 -212 2 c-163 2 -213 6 -212 16 1 6 2 472 3 1035 l1 1022 210 3 210 4 0 -1041z m1123 1034 l37 -7 0 -554 0 -554 -246 0 -246 0 3 145 4 145 27 0 28 0 0 283 0 284 -57 -4 c-32 -3 -62 -5 -66 -6 -4 -1 -8 -346 -8 -767 l0 -764 22 -8 c13 -5 43 -8 67 -6 l44 3 -1 223 -2 222 216 0 215 0 0 -355 0 -355 -371 0 c-440 0 -442 0 -531 92 -94 98 -89 40 -86 963 3 902 -3 832 85 926 52 55 83 75 138 87 49 10 680 16 728 7z m1252 -16 c91 -32 158 -99 190 -190 19 -53 22 -678 4 -740 -17 -53 -62 -105 -126 -141 l-54 -31 52 -29 c69 -37 93 -61 119 -115 20 -43 21 -58 18 -322 l-3 -276 -27 -52 c-31 -59 -98 -119 -161 -145 -37 -15 -86 -17 -419 -17 l-378 -1 0 1039 0 1039 372 -2 c288 -2 382 -6 413 -17z m739 -31 c8 -70 26 -327 26 -361 l0 -27 90 0 c65 0 90 3 90 13 0 6 7 98 15 202 8 105 15 198 15 208 0 16 17 17 211 17 l212 0 -6 -27 c-3 -16 -60 -484 -128 -1040 l-124 -1013 -285 0 -286 0 -27 228 c-14 125 -45 378 -66 562 -126 1052 -151 1264 -151 1276 0 11 38 14 204 14 l205 0 5 -52z m1534 -125 l2 -173 -176 0 -176 0 6 -22 c3 -13 31 -126 61 -253 30 -126 91 -383 135 -570 156 -655 150 -623 150 -761 l0 -124 -380 0 -380 0 2 172 3 173 148 3 c135 2 148 4 143 20 -3 9 -21 82 -40 162 -62 265 -154 652 -223 930 l-67 275 -4 173 -3 172 398 -2 398 -3 3 -172z m515 135 c3 -24 11 -123 18 -220 l12 -178 89 0 c64 0 88 3 88 13 0 6 7 95 15 197 8 102 15 195 15 208 l0 22 211 0 211 0 -6 -37 c-9 -56 -46 -369 -46 -387 0 -13 15 -16 91 -16 l90 0 -6 43 c-9 71 -45 375 -45 386 0 8 65 11 204 11 l204 0 6 -27 c3 -16 11 -115 17 -220 l13 -193 88 0 c48 0 88 3 88 8 0 4 7 90 15 192 8 102 15 197 15 213 l0 27 210 0 c116 0 210 -1 210 -3 0 -2 -56 -462 -125 -1023 -69 -560 -125 -1027 -125 -1037 0 -16 -18 -17 -287 -15 l-288 3 -42 350 c-23 193 -56 472 -73 620 -18 149 -35 290 -39 315 l-6 45 -127 3 -126 3 -6 -28 c-3 -15 -40 -317 -83 -670 l-77 -643 -286 0 -285 0 -119 998 c-65 548 -121 1016 -124 1040 l-5 42 206 0 205 0 5 -42z m2375 -400 l2 -438 65 0 65 0 0 440 0 440 215 0 215 0 0 -407 c0 -237 -4 -423 -10 -443 -15 -55 -55 -102 -121 -142 l-61 -37 40 -20 c58 -30 100 -68 125 -115 21 -40 22 -50 22 -361 0 -241 -3 -329 -13 -358 -23 -65 -85 -132 -153 -166 l-62 -31 -379 0 -378 0 0 1040 0 1040 213 -2 212 -3 3 -437z"/>
 <path d="M4963 3082 c-8 -5 -9 -13 -3 -22 6 -8 10 -25 10 -37 0 -12 5 -34 12 -50 11 -28 11 -28 25 27 21 82 21 85 -7 88 -14 1 -30 -1 -37 -6z"/>
 <path d="M6870 3071 c0 -13 12 -57 30 -105 5 -15 11 -3 23 44 9 35 13 68 11 72 -9 14 -64 5 -64 -11z"/>
 <path d="M8933 3082 c-9 -6 -8 -21 4 -65 16 -55 33 -76 33 -39 0 9 7 35 14 57 13 36 13 41 -2 47 -23 9 -35 9 -49 0z"/>
 <path d="M430 2235 c0 -3 0 -161 -1 -352 l0 -348 66 0 67 0 -1 330 c0 182 0 340 0 353 -1 20 -5 22 -66 22 -36 0 -65 -2 -65 -5z"/>
 <path d="M429 980 c-1 -143 -2 -266 -3 -272 -1 -9 19 -13 67 -13 l69 0 1 273 2 272 -67 0 -68 0 -1 -260z"/>
 <path d="M3610 1890 l0 -350 70 0 70 0 0 98 c0 53 1 211 3 350 l2 252 -72 0 -73 0 0 -350z"/>
 <path d="M3620 970 l0 -270 65 0 65 0 0 270 0 270 -65 0 -65 0 0 -270z"/>
 <path d="M4763 1713 c3 -32 18 -253 34 -490 15 -238 31 -433 35 -433 4 0 8 9 8 19 0 18 27 449 50 791 5 80 10 151 10 158 0 8 -21 12 -71 12 l-72 0 6 -57z"/>
 <path d="M6813 1713 c4 -32 18 -251 33 -488 15 -236 31 -434 36 -440 4 -5 8 1 8 15 0 14 14 234 30 490 16 256 30 468 30 473 0 4 -32 7 -71 7 l-72 0 6 -57z"/>
 <path d="M7964 1718 c3 -29 17 -242 31 -473 25 -397 33 -484 41 -460 3 8 64 942 64 977 0 4 -32 8 -71 8 l-71 0 6 -52z"/>
 <path d="M9140 1015 l0 -315 65 0 65 0 0 315 0 315 -65 0 -65 0 0 -315z"/>
 <path d="M7566 3193 c9 -53 9 -53 70 -53 49 0 55 2 64 26 23 59 17 64 -65 64 l-76 0 7 -37z"/>
 <path d="M9190 3218 c0 -6 5 -27 12 -45 12 -32 14 -33 64 -33 59 0 59 0 68 53 l7 37 -76 0 c-51 0 -75 -4 -75 -12z"/>
 <path d="M6387 3163 c-4 -3 -7 -60 -7 -125 0 -128 0 -129 56 -108 37 15 51 36 58 92 9 67 -8 126 -40 138 -29 12 -58 13 -67 3z"/>
 <path d="M8010 3120 l0 -50 36 0 c66 0 90 31 64 81 -8 14 -21 19 -55 19 l-45 0 0 -50z"/>
 <path d="M7612 3081 c-11 -7 -11 -16 2 -55 9 -26 16 -54 16 -63 0 -28 10 -8 25 52 13 47 13 60 3 67 -17 10 -30 10 -46 -1z"/>
 <path d="M8340 3074 c0 -23 22 -108 30 -117 4 -5 14 20 23 55 17 67 13 78 -30 78 -14 0 -23 -6 -23 -16z"/>
 <path d="M9234 3076 c-3 -8 -1 -23 4 -33 5 -10 13 -35 16 -57 4 -21 11 -35 15 -30 11 11 31 117 24 126 -8 14 -53 9 -59 -6z"/>
 <path d="M9532 2978 c3 -48 5 -53 28 -56 35 -4 75 38 65 68 -7 22 -41 40 -76 40 -18 0 -20 -6 -17 -52z"/>
 <path d="M8017 3012 c-3 -4 -5 -24 -4 -45 l1 -38 45 3 c44 3 46 5 49 36 3 27 -1 34 -23 42 -31 12 -62 13 -68 2z"/>
 </g>
<g id="layer108" fill="#d7e8f5" stroke="none">
 <path d="M0 2871 l0 -360 383 -3 c344 -3 386 -5 422 -22 63 -28 118 -79 150 -137 l30 -54 3 -355 c3 -306 1 -360 -13 -396 -18 -47 -83 -112 -133 -135 -37 -16 -40 -25 -12 -34 40 -13 122 -87 141 -128 17 -38 19 -69 19 -307 0 -316 -4 -334 -90 -420 -90 -90 -95 -91 -516 -92 -197 0 -364 -2 -371 -5 -10 -4 -13 -52 -13 -214 l0 -209 4873 0 c4630 0 4875 1 4889 18 8 9 20 37 27 62 7 25 31 80 52 123 22 43 39 91 39 106 0 28 -28 60 -86 99 -34 23 76 6 146 -22 80 -33 138 -81 196 -162 44 -61 69 -84 93 -84 8 0 11 458 11 1545 l0 1545 -258 0 -259 0 -46 -76 -47 -76 30 -24 c35 -30 48 -82 30 -125 -21 -49 -45 -59 -142 -59 l-88 0 0 180 c0 167 -1 180 -18 180 -15 0 -29 -34 -76 -181 l-58 -180 -41 3 -41 3 -55 167 c-30 92 -57 166 -59 163 -3 -3 -28 -78 -56 -167 l-51 -163 -42 -3 -41 -3 -59 178 c-43 132 -62 179 -75 181 -15 3 -17 -2 -12 -27 l6 -31 -71 0 c-39 0 -71 -2 -71 -4 0 -2 32 -56 70 -120 45 -75 70 -128 70 -147 l0 -30 -107 3 -108 3 -3 27 c-3 27 -2 27 62 30 l66 3 -75 124 c-41 68 -76 136 -78 150 -4 33 -4 34 -68 -171 l-52 -168 -42 0 -41 0 -58 180 -59 180 -42 0 -43 0 34 -34 c22 -22 34 -44 34 -60 0 -34 -24 -82 -46 -90 -15 -6 -15 -9 5 -29 21 -23 28 -68 15 -102 -12 -30 -60 -45 -142 -45 l-80 0 -7 56 c-4 31 -6 107 -5 168 1 61 2 117 1 124 -1 8 -23 12 -75 12 -69 0 -75 -2 -81 -22 -4 -13 -29 -94 -56 -181 l-50 -158 -41 3 -41 3 -57 170 -57 170 -56 -85 c-31 -47 -57 -90 -57 -95 0 -6 22 -43 50 -82 27 -39 50 -74 50 -77 0 -3 -19 -6 -42 -6 -42 0 -44 1 -86 70 -24 39 -48 68 -53 64 -6 -3 -9 -34 -7 -67 l3 -62 -37 -3 -38 -3 0 180 0 181 -75 0 -74 0 -58 -180 -57 -180 -41 0 -41 0 -58 180 c-48 147 -62 180 -77 180 -18 0 -19 -11 -19 -181 l0 -180 -36 3 -37 3 -1 172 c0 94 -4 174 -7 178 -4 3 -42 5 -85 3 l-79 -3 33 -18 c44 -24 71 -85 72 -160 0 -67 -17 -112 -55 -147 -23 -22 -37 -25 -116 -28 l-89 -4 0 182 0 181 -37 -3 -38 -3 -3 -177 -2 -178 -37 0 -36 0 5 95 c3 52 2 95 -1 95 -4 0 -27 -42 -52 -92 l-44 -93 -42 -3 -43 -3 0 180 0 181 -34 0 c-22 0 -36 -6 -40 -16 -3 -9 -6 -90 -6 -180 l0 -164 -35 0 -35 0 -2 178 -3 177 -82 3 -82 3 -3 -33 c-3 -28 -7 -32 -33 -33 -113 -4 -105 0 -105 -49 l0 -45 53 -3 c48 -3 52 -5 52 -28 0 -23 -4 -25 -52 -28 l-53 -3 0 -39 0 -39 63 -3 c59 -3 62 -4 65 -30 l3 -28 -100 0 -101 0 0 180 0 180 -70 0 -70 0 0 -76 c0 -74 2 -81 56 -180 l55 -104 -44 0 -44 0 -31 68 -31 67 -31 -67 -32 -68 -45 0 -44 0 55 104 c54 101 56 107 56 181 l0 76 -42 -3 -41 -3 -43 -135 c-24 -74 -49 -154 -56 -177 -12 -42 -14 -43 -54 -43 l-41 0 -59 180 c-47 145 -62 180 -76 180 -17 0 -18 -14 -18 -180 l0 -180 -36 0 -36 0 4 100 c1 55 1 100 -2 100 -3 0 -26 -45 -52 -100 l-46 -100 -41 0 -41 0 0 180 0 180 -2275 0 -2275 0 0 -359z m1600 -1401 l0 -1040 -212 2 c-163 2 -213 6 -212 16 1 6 2 473 3 1037 l1 1025 210 0 210 0 0 -1040z m1160 480 l0 -560 -245 0 -245 0 0 145 0 145 30 0 30 0 0 280 0 281 -65 -3 -66 -3 0 -765 c0 -729 0 -765 18 -771 10 -4 32 -8 50 -8 65 -2 63 -11 63 230 l0 219 215 0 215 0 0 -355 0 -356 -392 3 c-359 3 -396 5 -427 21 -50 28 -120 96 -144 142 -22 40 -22 41 -25 855 -2 724 -1 820 13 857 36 94 111 164 203 189 34 9 151 13 410 13 l362 1 0 -560z m1244 531 c61 -30 117 -87 148 -149 22 -46 23 -55 26 -387 2 -234 -1 -353 -9 -381 -15 -57 -61 -109 -126 -146 l-54 -31 52 -29 c69 -37 93 -61 119 -115 20 -43 21 -58 18 -322 l-3 -276 -27 -52 c-31 -59 -98 -119 -161 -145 -37 -15 -86 -17 -419 -17 l-378 -1 0 1041 0 1040 382 -3 c382 -3 383 -3 432 -27z m710 -23 c8 -70 26 -327 26 -361 l0 -27 90 0 c65 0 90 3 90 13 0 6 7 98 15 202 8 105 15 198 15 208 0 16 17 17 211 17 l212 0 -6 -27 c-3 -16 -60 -484 -128 -1040 l-124 -1013 -285 0 -286 0 -27 228 c-14 125 -45 378 -66 562 -126 1052 -151 1264 -151 1276 0 11 38 14 204 14 l205 0 5 -52z m1534 -125 l2 -173 -176 0 -176 0 6 -22 c3 -13 31 -126 61 -253 30 -126 91 -383 135 -570 156 -655 150 -623 150 -761 l0 -124 -380 0 -380 0 2 172 3 173 148 3 c135 2 148 4 143 20 -3 9 -21 82 -40 162 -62 265 -154 652 -223 930 l-67 275 -4 173 -3 172 398 -2 398 -3 3 -172z m515 135 c3 -24 11 -123 18 -220 l12 -178 89 0 c64 0 88 3 88 13 0 6 7 95 15 197 8 102 15 195 15 208 l0 22 211 0 211 0 -6 -37 c-9 -56 -46 -369 -46 -387 0 -13 15 -16 91 -16 l90 0 -6 43 c-9 71 -45 375 -45 386 0 8 65 11 204 11 l204 0 6 -27 c3 -16 11 -115 17 -220 l13 -193 88 0 c48 0 88 3 88 8 0 4 7 90 15 192 8 102 15 197 15 213 l0 27 210 0 c116 0 210 -1 210 -3 0 -2 -56 -462 -125 -1023 -69 -560 -125 -1027 -125 -1037 0 -16 -18 -17 -287 -15 l-288 3 -42 350 c-23 193 -56 472 -73 620 -18 149 -35 290 -39 315 l-6 45 -127 3 -126 3 -6 -28 c-3 -15 -40 -317 -83 -670 l-77 -643 -286 0 -285 0 -119 998 c-65 548 -121 1016 -124 1040 l-5 42 206 0 205 0 5 -42z m2375 -400 l2 -438 65 0 65 0 0 440 0 440 215 0 215 0 0 -407 c0 -237 -4 -423 -10 -443 -15 -55 -55 -102 -121 -142 l-61 -37 40 -20 c58 -30 100 -68 125 -115 21 -40 22 -50 22 -361 0 -241 -3 -329 -13 -358 -23 -65 -85 -132 -153 -166 l-62 -31 -379 0 -378 0 0 1040 0 1040 213 -2 212 -3 3 -437z"/>
 <path d="M3620 1890 l0 -350 65 0 64 0 3 103 c2 56 2 213 0 350 l-3 247 -64 0 -65 0 0 -350z"/>
 <path d="M3620 970 l0 -270 65 0 65 0 0 270 0 270 -65 0 -65 0 0 -270z"/>
 <path d="M4763 1713 c3 -32 18 -253 34 -490 15 -238 31 -433 35 -433 4 0 8 9 8 19 0 18 27 449 50 791 5 80 10 151 10 158 0 8 -21 12 -71 12 l-72 0 6 -57z"/>
 <path d="M6813 1713 c4 -32 18 -251 33 -488 15 -236 31 -434 36 -440 4 -5 8 1 8 15 0 14 14 234 30 490 16 256 30 468 30 473 0 4 -32 7 -71 7 l-72 0 6 -57z"/>
 <path d="M7964 1718 c3 -29 17 -242 31 -473 25 -397 33 -484 41 -460 3 8 64 942 64 977 0 4 -32 8 -71 8 l-71 0 6 -52z"/>
 <path d="M9140 1015 l0 -315 65 0 65 0 0 315 0 315 -65 0 -65 0 0 -315z"/>
 <path d="M4620 3118 c0 -61 2 -109 5 -107 5 6 95 207 95 214 0 3 -22 5 -50 5 l-50 0 0 -112z"/>
 <path d="M4920 3216 c0 -7 5 -27 11 -45 10 -29 14 -31 60 -31 44 0 51 3 59 26 22 58 17 64 -60 64 -52 0 -70 -3 -70 -14z"/>
 <path d="M6057 3223 c-4 -3 -7 -54 -6 -112 l1 -106 48 100 c27 55 49 106 49 113 1 13 -80 18 -92 5z"/>
 <path d="M6830 3216 c0 -7 5 -27 11 -45 10 -29 14 -31 60 -31 52 0 52 0 73 68 7 21 6 22 -68 22 -57 0 -76 -3 -76 -14z"/>
 <path d="M7289 3218 c-5 -60 -5 -93 0 -123 l6 -36 48 80 c26 43 47 82 47 85 0 13 -100 6 -101 -6z"/>
 <path d="M7560 3220 c0 -6 7 -26 14 -45 14 -33 18 -35 61 -35 43 0 47 2 61 35 7 19 14 39 14 45 0 6 -30 10 -75 10 -45 0 -75 -4 -75 -10z"/>
 <path d="M8300 3216 c0 -7 5 -27 11 -45 11 -31 13 -32 63 -29 49 3 52 5 62 38 7 19 10 38 7 43 -2 4 -35 7 -74 7 -51 0 -69 -3 -69 -14z"/>
 <path d="M8887 3224 c-3 -3 0 -22 7 -42 12 -35 15 -37 63 -40 49 -3 51 -2 62 29 20 57 17 59 -57 59 -38 0 -71 -3 -75 -6z"/>
 <path d="M9190 3224 c0 -4 5 -24 12 -45 11 -39 11 -39 63 -39 52 0 52 0 63 39 7 21 12 41 12 45 0 3 -34 6 -75 6 -41 0 -75 -3 -75 -6z"/>
 <path d="M9530 3155 c0 -41 4 -75 9 -75 8 0 91 134 91 146 0 2 -22 4 -50 4 l-50 0 0 -75z"/>
 <path d="M6387 3163 c-4 -3 -7 -55 -7 -113 0 -123 7 -137 58 -119 40 14 56 60 50 142 -4 47 -9 64 -27 78 -23 19 -62 25 -74 12z"/>
 <path d="M8020 3119 l0 -50 37 3 c29 2 41 9 53 31 14 27 14 29 -9 48 -13 10 -36 19 -52 19 -28 0 -29 -1 -29 -51z"/>
 <path d="M4965 3048 c4 -18 12 -44 17 -58 10 -24 11 -23 24 20 20 64 18 70 -17 70 -29 0 -30 -1 -24 -32z"/>
 <path d="M6870 3077 c0 -2 7 -28 17 -58 l16 -54 13 40 c20 65 18 75 -16 75 -16 0 -30 -1 -30 -3z"/>
 <path d="M7605 3068 c2 -7 9 -33 15 -58 13 -50 23 -43 39 28 l9 42 -34 0 c-22 0 -32 -4 -29 -12z"/>
 <path d="M8343 3066 c3 -8 9 -31 13 -50 9 -52 20 -52 33 -1 16 62 15 65 -20 65 -23 0 -30 -4 -26 -14z"/>
 <path d="M8930 3074 c0 -19 24 -94 30 -94 6 0 30 75 30 94 0 3 -13 6 -30 6 -16 0 -30 -3 -30 -6z"/>
 <path d="M9245 3033 c8 -27 15 -52 15 -56 0 -21 18 6 23 35 3 18 8 41 12 51 6 14 1 17 -28 17 l-36 0 14 -47z"/>
 <path d="M9532 2973 c3 -47 4 -48 33 -45 38 4 55 19 55 46 0 31 -19 46 -58 46 l-33 0 3 -47z"/>
 <path d="M8020 2970 c0 -38 2 -40 29 -40 26 0 61 21 61 36 0 25 -25 44 -55 44 -34 0 -35 -1 -35 -40z"/>
 <path d="M430 1890 l0 -351 66 3 65 3 0 325 c0 179 0 335 0 348 -1 20 -5 22 -66 22 l-65 0 0 -350z"/>
 <path d="M430 970 l0 -270 65 0 c61 0 65 2 65 23 1 40 2 471 1 495 -1 20 -5 22 -66 22 l-65 0 0 -270z"/>
 <path d="M9990 133 c-14 -9 -44 -35 -68 -58 -24 -22 -52 -44 -63 -49 -10 -5 -19 -13 -19 -18 0 -4 90 -8 200 -8 l200 0 0 56 c0 53 -1 55 -22 48 -35 -12 -61 -7 -109 21 -52 29 -85 31 -119 8z"/>
 </g>
<g id="layer109" fill="#ffe8d5" stroke="none">
 <path d="M0 2871 l0 -360 383 -3 c344 -3 386 -5 422 -22 63 -28 118 -79 150 -137 l30 -54 3 -355 c3 -306 1 -360 -13 -396 -18 -47 -83 -112 -133 -135 -37 -16 -40 -25 -12 -34 40 -13 122 -87 141 -128 17 -38 19 -69 19 -307 0 -316 -4 -334 -90 -420 -90 -90 -95 -91 -516 -92 -197 0 -364 -2 -371 -5 -10 -4 -13 -52 -13 -214 l0 -209 4873 0 c4630 0 4875 1 4889 18 8 9 20 37 27 62 7 25 31 80 52 123 22 43 39 91 39 106 0 28 -28 60 -86 99 -34 23 76 6 146 -22 80 -33 138 -81 196 -162 44 -61 69 -84 93 -84 8 0 11 458 11 1545 l0 1545 -258 0 -259 0 -46 -76 -47 -76 30 -24 c35 -30 48 -82 30 -125 -21 -49 -45 -59 -142 -59 l-88 0 0 180 c0 167 -1 180 -18 180 -15 0 -29 -34 -76 -181 l-58 -180 -41 3 -41 3 -55 167 c-30 92 -57 166 -59 163 -3 -3 -28 -78 -56 -167 l-51 -163 -42 -3 -41 -3 -59 178 c-43 132 -62 179 -75 181 -15 3 -17 -2 -12 -27 l6 -31 -71 0 c-39 0 -71 -2 -71 -4 0 -2 32 -56 70 -120 45 -75 70 -128 70 -147 l0 -30 -107 3 -108 3 -3 27 c-3 27 -2 27 62 30 l66 3 -75 124 c-41 68 -76 136 -78 150 -4 33 -4 34 -68 -171 l-52 -168 -42 0 -41 0 -58 180 -59 180 -42 0 -43 0 34 -34 c22 -22 34 -44 34 -60 0 -34 -24 -82 -46 -90 -15 -6 -15 -9 5 -29 21 -23 28 -68 15 -102 -12 -30 -60 -45 -142 -45 l-80 0 -7 56 c-4 31 -6 107 -5 168 1 61 2 117 1 124 -1 8 -23 12 -75 12 -69 0 -75 -2 -81 -22 -4 -13 -29 -94 -56 -181 l-50 -158 -41 3 -41 3 -57 170 -57 170 -56 -85 c-31 -47 -57 -90 -57 -95 0 -6 22 -43 50 -82 27 -39 50 -74 50 -77 0 -3 -19 -6 -42 -6 -42 0 -44 1 -86 70 -24 39 -48 68 -53 64 -6 -3 -9 -34 -7 -67 l3 -62 -37 -3 -38 -3 0 180 0 181 -75 0 -74 0 -58 -180 -57 -180 -41 0 -41 0 -58 180 c-48 147 -62 180 -77 180 -18 0 -19 -11 -19 -181 l0 -180 -36 3 -37 3 -1 172 c0 94 -4 174 -7 178 -4 3 -42 5 -85 3 l-79 -3 33 -18 c44 -24 71 -85 72 -160 0 -67 -17 -112 -55 -147 -23 -22 -37 -25 -116 -28 l-89 -4 0 182 0 181 -37 -3 -38 -3 -3 -177 -2 -178 -37 0 -36 0 5 95 c3 52 2 95 -1 95 -4 0 -27 -42 -52 -92 l-44 -93 -42 -3 -43 -3 0 180 0 181 -34 0 c-22 0 -36 -6 -40 -16 -3 -9 -6 -90 -6 -180 l0 -164 -35 0 -35 0 -2 178 -3 177 -82 3 -82 3 -3 -33 c-3 -28 -7 -32 -33 -33 -113 -4 -105 0 -105 -49 l0 -45 53 -3 c48 -3 52 -5 52 -28 0 -23 -4 -25 -52 -28 l-53 -3 0 -39 0 -39 63 -3 c59 -3 62 -4 65 -30 l3 -28 -100 0 -101 0 0 180 0 180 -70 0 -70 0 0 -76 c0 -74 2 -81 56 -180 l55 -104 -44 0 -44 0 -31 68 -31 67 -31 -67 -32 -68 -45 0 -44 0 55 104 c54 101 56 107 56 181 l0 76 -42 -3 -41 -3 -43 -135 c-24 -74 -49 -154 -56 -177 -12 -42 -14 -43 -54 -43 l-41 0 -59 180 c-47 145 -62 180 -76 180 -17 0 -18 -14 -18 -180 l0 -180 -36 0 -36 0 4 100 c1 55 1 100 -2 100 -3 0 -26 -45 -52 -100 l-46 -100 -41 0 -41 0 0 180 0 180 -2275 0 -2275 0 0 -359z m4715 -386 c1 -16 6 -77 9 -135 4 -58 10 -125 13 -150 3 -25 5 -64 5 -87 l1 -43 83 0 c97 0 95 -3 100 125 2 44 6 103 9 130 3 28 6 82 8 120 l4 70 214 0 c169 0 213 -3 211 -13 -4 -21 -12 -84 -18 -137 -11 -104 -13 -121 -18 -150 -4 -28 -13 -103 -20 -185 -2 -19 -7 -51 -10 -70 -4 -19 -9 -57 -12 -85 -11 -105 -13 -121 -18 -150 -5 -32 -16 -127 -21 -185 -1 -19 -6 -51 -9 -70 -4 -19 -9 -57 -12 -85 -11 -105 -13 -121 -18 -150 -5 -32 -16 -127 -21 -185 -1 -19 -6 -51 -9 -70 -6 -32 -9 -57 -21 -170 -2 -19 -6 -53 -9 -75 -3 -22 -8 -62 -11 -90 -6 -52 -10 -88 -21 -167 l-6 -48 -289 0 -289 0 -4 23 c-2 12 -4 31 -5 42 0 25 -10 119 -17 165 -7 48 -13 95 -19 160 -3 30 -8 69 -10 85 -7 47 -15 115 -21 170 -2 28 -7 66 -10 85 -3 19 -7 51 -9 70 -2 19 -7 62 -11 95 -3 33 -6 71 -6 85 0 14 -4 30 -9 36 -5 6 -9 27 -9 45 1 35 -5 95 -15 164 -3 22 -8 58 -10 80 -2 22 -7 65 -11 95 -3 30 -7 66 -8 80 -1 14 -5 30 -9 37 -4 6 -7 26 -7 45 1 34 -6 107 -15 168 -7 43 -13 96 -21 175 -8 85 -10 97 -18 127 -17 58 -16 59 210 56 l207 -3 2 -30z m1533 -147 l-3 -183 -168 -3 c-154 -2 -168 -4 -163 -20 7 -25 19 -85 21 -102 0 -9 4 -20 8 -26 3 -6 8 -26 11 -45 2 -19 9 -47 16 -63 6 -16 9 -35 6 -42 -3 -8 -1 -16 5 -19 5 -4 9 -12 8 -18 -2 -7 5 -38 15 -70 10 -32 15 -61 12 -64 -3 -4 -1 -12 6 -20 6 -7 8 -16 5 -20 -4 -3 -3 -11 3 -18 5 -6 11 -27 14 -46 3 -19 10 -49 15 -68 6 -19 8 -37 6 -42 -3 -4 -1 -10 3 -13 5 -3 9 -19 10 -36 0 -17 5 -37 11 -44 5 -6 12 -28 14 -47 2 -19 7 -40 11 -48 4 -7 5 -15 2 -18 -3 -3 -2 -11 4 -18 5 -6 11 -27 14 -46 2 -19 9 -47 16 -63 6 -16 9 -35 6 -42 -3 -8 -2 -16 3 -18 4 -3 8 -19 9 -36 0 -17 5 -37 11 -44 6 -7 12 -28 15 -47 3 -19 10 -49 15 -68 6 -19 9 -37 6 -39 -3 -3 0 -11 7 -19 6 -7 8 -16 5 -19 -3 -3 1 -20 8 -37 9 -21 14 -83 14 -184 l2 -153 -381 0 -380 0 2 173 3 172 148 3 c81 1 147 6 147 10 0 5 -4 12 -10 18 -5 5 -11 25 -14 44 -3 19 -10 50 -15 69 -6 19 -8 37 -6 42 3 4 1 10 -4 13 -4 3 -8 16 -8 30 0 13 -8 43 -17 67 -9 24 -18 58 -19 74 -2 17 -6 36 -10 42 -3 5 -9 30 -12 54 -3 24 -13 63 -22 87 -9 23 -13 45 -10 49 4 3 2 12 -5 20 -6 7 -8 16 -5 20 4 3 2 14 -4 25 -9 16 -14 38 -23 98 -1 9 -6 21 -10 28 -4 8 -10 34 -12 59 -3 25 -9 53 -14 63 -9 18 -30 98 -34 135 -1 12 -6 27 -10 34 -4 7 -5 15 -2 18 3 3 1 12 -4 19 -6 6 -10 16 -8 20 1 5 -4 26 -11 47 -7 21 -10 41 -7 44 3 4 1 12 -6 20 -6 7 -8 16 -5 20 4 3 2 14 -4 25 -20 37 -29 124 -29 283 0 88 0 161 0 163 0 1 180 2 400 2 l400 0 -2 -182z m518 132 c3 -25 7 -74 9 -110 3 -36 8 -96 11 -135 4 -38 7 -89 7 -112 l0 -43 83 0 c97 0 94 -3 100 119 2 42 6 99 9 126 2 28 6 84 8 125 l4 75 214 0 c171 0 213 -3 211 -13 -5 -25 -20 -149 -26 -222 -2 -25 -7 -65 -11 -90 -4 -25 -8 -61 -9 -80 l0 -35 88 -3 89 -3 -8 33 c-4 18 -9 51 -11 73 -2 22 -6 58 -10 80 -3 22 -8 58 -9 80 -5 58 -14 152 -17 167 -2 10 39 13 206 13 l209 0 3 -32 c13 -119 22 -247 25 -345 l2 -68 82 0 c82 0 83 0 91 28 4 15 9 54 10 87 2 33 6 89 9 125 3 36 7 97 8 135 l2 70 215 0 c209 0 215 -1 212 -20 -1 -11 -4 -38 -6 -60 -3 -22 -7 -53 -10 -70 -4 -28 -12 -88 -21 -175 -2 -19 -6 -51 -9 -70 -3 -19 -8 -60 -11 -90 -6 -67 -12 -115 -19 -155 -4 -28 -12 -87 -21 -175 -2 -19 -6 -51 -9 -70 -3 -19 -8 -60 -11 -90 -7 -72 -12 -116 -20 -165 -3 -22 -8 -60 -10 -85 -6 -52 -12 -100 -19 -150 -3 -19 -8 -60 -11 -90 -6 -67 -12 -115 -19 -155 -4 -27 -10 -76 -21 -175 -2 -19 -6 -51 -9 -70 -6 -44 -16 -134 -19 -180 l-2 -35 -284 -3 c-157 -1 -288 1 -293 6 -8 8 -15 48 -23 132 -7 72 -17 156 -21 185 -3 17 -7 46 -9 65 -8 79 -17 157 -22 185 -3 17 -6 46 -8 65 -4 42 -15 142 -21 190 -5 37 -9 73 -18 155 -3 28 -8 66 -11 85 -7 37 -15 115 -19 165 -1 17 -6 47 -10 68 l-8 37 -124 0 c-92 0 -124 -3 -125 -12 -1 -7 -3 -24 -4 -38 -1 -14 -6 -52 -10 -85 -4 -33 -8 -76 -10 -95 -2 -19 -6 -48 -9 -65 -6 -39 -17 -130 -21 -175 -1 -19 -6 -55 -9 -80 -4 -25 -10 -65 -12 -90 -11 -93 -13 -116 -18 -145 -6 -36 -16 -126 -21 -180 -2 -22 -6 -58 -10 -80 -5 -37 -10 -78 -21 -165 -2 -19 -5 -48 -8 -65 -2 -16 -4 -38 -5 -47 -1 -17 -22 -18 -291 -18 l-290 0 -5 23 c-3 12 -5 31 -5 42 1 23 -8 113 -16 165 -7 48 -13 95 -19 160 -3 30 -8 71 -10 90 -6 39 -13 103 -20 165 -2 22 -7 58 -10 80 -4 22 -9 58 -11 80 -2 22 -7 65 -10 95 -3 30 -6 66 -6 80 0 14 -4 30 -9 36 -5 6 -9 27 -8 45 1 31 -3 72 -17 174 -7 50 -12 95 -19 165 -3 30 -8 69 -10 85 -7 38 -14 95 -21 165 -3 30 -7 69 -10 85 -6 36 -12 89 -20 170 -8 85 -10 97 -18 127 -17 58 -16 59 210 56 l206 -3 4 -45z m2374 -395 l0 -446 58 3 57 3 5 440 5 440 218 3 217 2 0 -414 c0 -356 -2 -422 -16 -463 -17 -51 -67 -107 -118 -133 -43 -22 -43 -38 -1 -56 46 -19 102 -74 120 -119 12 -27 15 -100 14 -357 0 -321 0 -323 -24 -375 -29 -60 -71 -113 -91 -113 -8 0 -14 -5 -14 -11 0 -5 -20 -19 -45 -30 -41 -18 -70 -20 -432 -22 l-388 -2 2 1045 c2 575 3 1046 3 1048 0 1 97 2 215 2 l215 0 0 -445z m-7540 -605 l0 -1040 -212 2 c-163 2 -213 6 -212 16 1 6 2 473 3 1037 l1 1025 210 0 210 0 0 -1040z m1160 480 l0 -560 -245 0 -245 0 0 145 0 145 30 0 30 0 0 280 0 281 -65 -3 -66 -3 0 -765 c0 -729 0 -765 18 -771 10 -4 32 -8 50 -8 65 -2 63 -11 63 230 l0 219 215 0 215 0 0 -355 0 -356 -392 3 c-359 3 -396 5 -427 21 -50 28 -120 96 -144 142 -22 40 -22 41 -25 855 -2 724 -1 820 13 857 36 94 111 164 203 189 34 9 151 13 410 13 l362 1 0 -560z m1180 550 c79 -15 142 -60 195 -140 l46 -69 -1 -348 c0 -191 -2 -357 -3 -368 -8 -57 -76 -140 -139 -167 -35 -16 -35 -22 -2 -37 47 -21 95 -64 120 -107 l25 -43 0 -268 c-1 -293 -3 -318 -25 -361 -18 -35 -80 -101 -118 -126 -48 -32 -96 -35 -478 -36 l-375 -1 0 248 c0 136 1 605 3 1041 l2 792 349 0 c192 0 372 -5 401 -10z"/>
 <path d="M4769 1743 c-5 -14 -7 -34 -3 -42 4 -9 8 -54 10 -101 3 -88 12 -233 20 -330 5 -58 10 -142 18 -304 3 -54 7 -101 10 -104 12 -11 19 9 22 60 17 326 24 439 28 483 2 22 6 87 9 145 3 58 8 121 12 141 11 59 -6 79 -66 79 -44 0 -51 -3 -60 -27z"/>
 <path d="M6819 1744 c-5 -15 -7 -36 -3 -46 3 -11 8 -61 10 -112 3 -50 7 -122 10 -161 3 -38 7 -95 9 -125 2 -30 7 -100 10 -155 10 -191 14 -230 23 -260 l9 -30 6 35 c3 19 5 46 5 60 0 14 3 77 7 140 4 63 9 151 11 195 2 44 6 98 8 120 5 49 18 270 19 306 0 51 -9 59 -63 59 -45 0 -52 -3 -61 -26z"/>
 <path d="M7965 1718 c4 -29 9 -91 12 -138 2 -47 6 -107 9 -135 2 -27 6 -81 8 -120 4 -84 17 -275 22 -330 2 -22 5 -68 7 -103 2 -34 7 -65 9 -68 6 -5 16 85 16 136 0 24 9 176 17 285 14 208 27 422 26 464 0 57 -5 61 -72 61 l-62 0 8 -52z"/>
 <path d="M9142 1013 l3 -308 58 -3 57 -3 0 311 0 310 -60 0 -60 0 2 -307z"/>
 <path d="M3620 1892 l0 -347 62 3 c34 2 63 4 65 5 3 4 4 164 4 440 l-1 247 -65 0 -65 0 0 -348z"/>
 <path d="M3636 1231 c-3 -4 -6 -125 -6 -267 l-1 -259 60 -3 61 -3 0 271 0 270 -54 0 c-30 0 -57 -4 -60 -9z"/>
 <path d="M4620 3118 c0 -61 2 -109 5 -107 5 6 95 207 95 214 0 3 -22 5 -50 5 l-50 0 0 -112z"/>
 <path d="M4920 3216 c0 -7 5 -27 11 -45 10 -29 14 -31 60 -31 44 0 51 3 59 26 22 58 17 64 -60 64 -52 0 -70 -3 -70 -14z"/>
 <path d="M6057 3223 c-4 -3 -7 -54 -6 -112 l1 -106 48 100 c27 55 49 106 49 113 1 13 -80 18 -92 5z"/>
 <path d="M6830 3216 c0 -7 5 -27 11 -45 10 -29 14 -31 60 -31 52 0 52 0 73 68 7 21 6 22 -68 22 -57 0 -76 -3 -76 -14z"/>
 <path d="M7289 3218 c-5 -60 -5 -93 0 -123 l6 -36 48 80 c26 43 47 82 47 85 0 13 -100 6 -101 -6z"/>
 <path d="M7560 3220 c0 -6 7 -26 14 -45 14 -33 18 -35 61 -35 43 0 47 2 61 35 7 19 14 39 14 45 0 6 -30 10 -75 10 -45 0 -75 -4 -75 -10z"/>
 <path d="M8300 3216 c0 -7 5 -27 11 -45 11 -31 13 -32 63 -29 49 3 52 5 62 38 7 19 10 38 7 43 -2 4 -35 7 -74 7 -51 0 -69 -3 -69 -14z"/>
 <path d="M8887 3224 c-3 -3 0 -22 7 -42 12 -35 15 -37 63 -40 49 -3 51 -2 62 29 20 57 17 59 -57 59 -38 0 -71 -3 -75 -6z"/>
 <path d="M9190 3224 c0 -4 5 -24 12 -45 11 -39 11 -39 63 -39 52 0 52 0 63 39 7 21 12 41 12 45 0 3 -34 6 -75 6 -41 0 -75 -3 -75 -6z"/>
 <path d="M9530 3155 c0 -41 4 -75 9 -75 8 0 91 134 91 146 0 2 -22 4 -50 4 l-50 0 0 -75z"/>
 <path d="M6387 3163 c-4 -3 -7 -55 -7 -113 0 -123 7 -137 58 -119 40 14 56 60 50 142 -4 47 -9 64 -27 78 -23 19 -62 25 -74 12z"/>
 <path d="M8020 3119 l0 -50 37 3 c29 2 41 9 53 31 14 27 14 29 -9 48 -13 10 -36 19 -52 19 -28 0 -29 -1 -29 -51z"/>
 <path d="M4965 3048 c4 -18 12 -44 17 -58 10 -24 11 -23 24 20 20 64 18 70 -17 70 -29 0 -30 -1 -24 -32z"/>
 <path d="M6870 3077 c0 -2 7 -28 17 -58 l16 -54 13 40 c20 65 18 75 -16 75 -16 0 -30 -1 -30 -3z"/>
 <path d="M7605 3068 c2 -7 9 -33 15 -58 13 -50 23 -43 39 28 l9 42 -34 0 c-22 0 -32 -4 -29 -12z"/>
 <path d="M8343 3066 c3 -8 9 -31 13 -50 9 -52 20 -52 33 -1 16 62 15 65 -20 65 -23 0 -30 -4 -26 -14z"/>
 <path d="M8930 3074 c0 -19 24 -94 30 -94 6 0 30 75 30 94 0 3 -13 6 -30 6 -16 0 -30 -3 -30 -6z"/>
 <path d="M9245 3033 c8 -27 15 -52 15 -56 0 -21 18 6 23 35 3 18 8 41 12 51 6 14 1 17 -28 17 l-36 0 14 -47z"/>
 <path d="M9532 2973 c3 -47 4 -48 33 -45 38 4 55 19 55 46 0 31 -19 46 -58 46 l-33 0 3 -47z"/>
 <path d="M8020 2970 c0 -38 2 -40 29 -40 26 0 61 21 61 36 0 25 -25 44 -55 44 -34 0 -35 -1 -35 -40z"/>
 <path d="M430 1890 l0 -351 66 3 65 3 0 325 c0 179 0 335 0 348 -1 20 -5 22 -66 22 l-65 0 0 -350z"/>
 <path d="M430 970 l0 -270 65 0 c61 0 65 2 65 23 1 40 2 471 1 495 -1 20 -5 22 -66 22 l-65 0 0 -270z"/>
 <path d="M9990 133 c-14 -9 -44 -35 -68 -58 -24 -22 -52 -44 -63 -49 -10 -5 -19 -13 -19 -18 0 -4 90 -8 200 -8 l200 0 0 56 c0 53 -1 55 -22 48 -35 -12 -61 -7 -109 21 -52 29 -85 31 -119 8z"/>
 </g>
<g id="layer110" fill="#fefefe" stroke="none">
 <path d="M0 2875 l0 -355 358 0 c372 0 423 -5 488 -45 52 -33 95 -79 120 -128 l25 -49 0 -374 0 -375 -26 -44 c-24 -41 -100 -105 -124 -105 -23 0 -9 -20 25 -36 19 -9 49 -30 65 -47 60 -59 61 -63 60 -365 0 -153 -1 -279 -1 -282 -1 -3 -3 -18 -5 -34 -8 -61 -89 -154 -165 -189 -42 -19 -63 -20 -392 -19 -209 1 -350 -3 -353 -9 -4 -5 -13 -5 -25 1 -10 5 -26 7 -34 4 -14 -5 -16 -34 -16 -215 l0 -209 4876 2 c4323 3 4878 5 4884 18 5 8 14 35 20 60 7 25 32 84 55 133 27 55 41 95 38 108 -3 12 -28 37 -56 57 l-50 36 29 10 c54 18 205 -42 276 -110 38 -35 98 -116 98 -131 0 -8 47 -33 62 -33 4 0 8 693 8 1540 l0 1540 -258 0 -258 0 -11 -27 c-6 -16 -24 -50 -40 -76 -25 -43 -26 -49 -13 -60 52 -40 63 -100 30 -155 -25 -41 -51 -51 -117 -45 -34 4 -58 1 -67 -7 -10 -8 -20 -8 -32 -2 -16 9 -17 27 -15 173 2 158 -2 199 -19 199 -5 0 -13 -15 -18 -32 -74 -244 -108 -338 -121 -333 -7 3 -19 1 -26 -5 -9 -7 -15 -8 -19 -1 -4 6 -13 8 -21 5 -10 -4 -27 35 -65 156 -29 88 -55 159 -58 156 -2 -3 -26 -74 -52 -157 -38 -121 -52 -154 -69 -160 -11 -5 -23 -4 -27 2 -3 5 -15 9 -27 7 -20 -3 -27 13 -82 179 -33 100 -62 183 -65 183 -4 0 -4 -15 -2 -34 3 -23 -1 -35 -12 -39 -8 -3 -18 -2 -21 3 -7 12 -48 13 -59 3 -4 -5 -13 -8 -19 -8 -18 -1 -13 -14 50 -121 62 -106 76 -168 41 -177 -10 -3 -21 -1 -24 4 -7 12 -127 12 -140 0 -5 -5 -19 -5 -31 0 -18 6 -22 16 -21 44 l1 35 59 0 c33 0 58 4 56 8 -1 5 -34 61 -72 126 l-69 118 -28 -89 c-15 -48 -38 -121 -51 -162 l-23 -74 -50 0 -50 0 -59 182 -58 181 -32 0 c-26 -1 -28 -2 -13 -11 23 -13 47 -62 47 -95 0 -15 -12 -43 -26 -62 -17 -22 -23 -37 -16 -41 16 -10 33 -59 22 -66 -5 -3 -7 -12 -4 -19 3 -7 -6 -26 -19 -41 -23 -27 -26 -28 -126 -28 l-103 0 0 182 0 181 -67 0 -67 0 -33 -102 c-18 -57 -44 -138 -59 -182 l-27 -78 -49 -2 c-26 -1 -50 3 -52 9 -1 5 -24 76 -49 158 -26 81 -50 147 -55 147 -10 0 -100 -131 -100 -145 0 -6 23 -42 50 -80 27 -38 50 -74 50 -80 0 -6 -23 -10 -52 -9 -53 0 -53 1 -83 52 -16 28 -33 52 -37 52 -4 0 -8 -24 -10 -52 -2 -29 -6 -51 -9 -48 -3 3 -13 -1 -22 -8 -9 -8 -21 -10 -29 -6 -7 5 -17 9 -23 9 -6 0 -11 69 -13 183 l-2 182 -70 0 c-52 0 -70 -3 -70 -13 0 -15 -97 -334 -106 -349 -3 -4 -10 -5 -16 -2 -5 4 -21 0 -34 -7 -21 -11 -27 -10 -38 2 -8 8 -40 93 -71 189 -32 96 -59 177 -62 180 -16 18 -23 -47 -21 -197 3 -157 2 -172 -14 -167 -9 2 -19 1 -22 -5 -3 -5 -15 -7 -27 -4 -17 5 -20 11 -15 34 3 16 2 30 -2 33 -9 5 -8 53 2 89 5 15 4 33 -1 40 -6 6 -8 49 -7 95 l4 82 -72 0 -71 0 27 -21 c41 -32 59 -77 62 -154 1 -52 -3 -81 -17 -112 -30 -63 -58 -76 -164 -77 l-90 -1 3 158 c5 197 2 209 -41 205 l-32 -3 0 -183 c0 -139 -3 -181 -12 -178 -7 3 -15 1 -18 -5 -4 -5 -12 -6 -18 -2 -7 4 -16 8 -22 8 -6 0 -10 34 -10 83 0 45 -1 82 -3 82 -2 0 -20 -38 -41 -83 -37 -80 -63 -109 -77 -86 -3 6 -18 9 -32 7 l-27 -3 -3 183 -2 182 -30 0 c-40 0 -42 -13 -38 -206 l3 -159 -40 0 -40 0 0 180 0 180 -77 3 -77 3 -3 -37 -3 -38 -60 -3 c-74 -4 -85 -8 -85 -31 0 -27 24 -44 57 -42 15 1 33 2 39 1 15 -1 24 -35 17 -62 -5 -18 -11 -21 -44 -16 -29 4 -42 0 -55 -14 -28 -32 -11 -49 49 -49 59 0 75 -11 75 -50 l0 -25 -109 0 -109 0 0 183 0 182 -60 0 -60 0 0 -75 c0 -71 3 -80 52 -175 29 -54 50 -101 48 -103 -3 -2 -24 -7 -48 -10 l-43 -5 -27 54 c-14 30 -29 54 -32 54 -4 0 -16 -22 -28 -50 -22 -49 -55 -79 -67 -60 -3 5 -17 10 -31 10 -13 0 -24 5 -24 10 0 6 22 54 50 106 47 89 50 99 50 169 l0 75 -35 0 c-21 0 -35 -5 -35 -12 0 -14 -28 -106 -76 -253 -27 -82 -36 -100 -52 -100 -11 0 -24 -3 -28 -7 -4 -4 -12 -4 -18 1 -6 5 -15 9 -21 9 -5 0 -37 82 -70 181 -33 99 -63 181 -67 181 -5 0 -8 -82 -8 -182 l0 -183 -45 0 -45 0 -1 80 0 80 -41 -80 -40 -80 -46 0 -47 0 3 158 c2 87 1 169 -2 183 l-6 24 -2270 0 -2270 0 0 -355z m1605 -1405 l0 -1045 -194 3 c-118 2 -198 -1 -204 -7 -5 -5 -15 -7 -22 -5 -9 4 -11 28 -7 94 3 63 1 94 -8 104 -14 18 -12 264 4 284 7 9 6 20 -3 34 -9 15 -10 23 -2 31 14 14 14 144 1 152 -13 8 -13 322 0 330 15 9 13 318 -2 333 -9 9 -9 15 0 24 8 8 8 15 1 24 -7 8 -7 14 1 19 13 8 13 62 0 70 -5 3 -10 42 -10 85 0 43 5 82 10 85 14 8 13 378 0 391 -6 6 -8 18 -4 28 6 15 27 16 223 14 l216 -3 0 -1045z m1158 480 l2 -565 -183 3 c-124 2 -188 0 -197 -8 -9 -8 -15 -8 -20 0 -8 13 -52 13 -60 0 -4 -7 -13 -7 -26 0 -18 10 -19 21 -17 158 3 127 5 147 19 147 9 0 24 6 33 14 15 12 16 42 14 270 l-3 256 -35 5 c-19 3 -47 4 -62 1 l-28 -3 3 -754 c1 -486 6 -756 12 -762 6 -5 33 -7 60 -3 l50 6 2 213 1 212 219 3 218 2 0 -360 0 -360 -384 2 c-444 2 -452 3 -524 75 -94 94 -88 22 -88 969 0 823 1 832 21 875 37 75 131 149 209 165 20 4 199 6 399 5 l362 -1 3 -565z m1239 543 c61 -28 134 -101 159 -159 19 -41 20 -67 19 -391 0 -192 -2 -357 -3 -368 -8 -57 -76 -140 -139 -167 -35 -16 -35 -22 -2 -37 47 -21 95 -64 120 -107 l25 -43 0 -268 c-1 -147 -3 -282 -5 -300 -7 -47 -31 -87 -81 -138 -84 -83 -60 -79 -508 -85 -219 -3 -400 -3 -403 -1 -7 7 -4 2077 3 2085 4 4 179 6 388 4 367 -3 382 -4 427 -25z m713 -8 c1 -16 6 -77 9 -135 4 -58 10 -125 13 -150 3 -25 5 -64 5 -87 l1 -43 83 0 c97 0 95 -3 100 125 2 44 6 103 9 130 3 28 6 82 8 120 l4 70 214 0 c169 0 213 -3 211 -13 -4 -21 -12 -84 -18 -137 -11 -104 -13 -121 -18 -150 -4 -28 -13 -103 -20 -185 -2 -19 -7 -51 -10 -70 -4 -19 -9 -57 -12 -85 -11 -105 -13 -121 -18 -150 -5 -32 -16 -127 -21 -185 -1 -19 -6 -51 -9 -70 -4 -19 -9 -57 -12 -85 -11 -105 -13 -121 -18 -150 -5 -32 -16 -127 -21 -185 -1 -19 -6 -51 -9 -70 -6 -32 -9 -57 -21 -170 -2 -19 -6 -53 -9 -75 -3 -22 -8 -62 -11 -90 -6 -52 -10 -88 -21 -167 l-6 -48 -289 0 -289 0 -4 23 c-2 12 -4 31 -5 42 0 25 -10 119 -17 165 -7 48 -13 95 -19 160 -3 30 -8 69 -10 85 -7 47 -15 115 -21 170 -2 28 -7 66 -10 85 -3 19 -7 51 -9 70 -2 19 -7 62 -11 95 -3 33 -6 71 -6 85 0 14 -4 30 -9 36 -5 6 -9 27 -9 45 1 35 -5 95 -15 164 -3 22 -8 58 -10 80 -2 22 -7 65 -11 95 -3 30 -7 66 -8 80 -1 14 -5 30 -9 37 -4 6 -7 26 -7 45 1 34 -6 107 -15 168 -7 43 -13 96 -21 175 -8 85 -10 97 -18 127 -17 58 -16 59 210 56 l207 -3 2 -30z m1533 -147 l-3 -183 -168 -3 c-154 -2 -168 -4 -163 -20 7 -25 19 -85 21 -102 0 -9 4 -20 8 -26 3 -6 8 -26 11 -45 2 -19 9 -47 16 -63 6 -16 9 -35 6 -42 -3 -8 -1 -16 5 -19 5 -4 9 -12 8 -18 -2 -7 5 -38 15 -70 10 -32 15 -61 12 -64 -3 -4 -1 -12 6 -20 6 -7 8 -16 5 -20 -4 -3 -3 -11 3 -18 5 -6 11 -27 14 -46 3 -19 10 -49 15 -68 6 -19 8 -37 6 -42 -3 -4 -1 -10 3 -13 5 -3 9 -19 10 -36 0 -17 5 -37 11 -44 5 -6 12 -28 14 -47 2 -19 7 -40 11 -48 4 -7 5 -15 2 -18 -3 -3 -2 -11 4 -18 5 -6 11 -27 14 -46 2 -19 9 -47 16 -63 6 -16 9 -35 6 -42 -3 -8 -2 -16 3 -18 4 -3 8 -19 9 -36 0 -17 5 -37 11 -44 6 -7 12 -28 15 -47 3 -19 10 -49 15 -68 6 -19 9 -37 6 -39 -3 -3 0 -11 7 -19 6 -7 8 -16 5 -19 -3 -3 1 -20 8 -37 9 -21 14 -83 14 -184 l2 -153 -381 0 -380 0 2 173 3 172 148 3 c81 1 147 6 147 10 0 5 -4 12 -10 18 -5 5 -11 25 -14 44 -3 19 -10 50 -15 69 -6 19 -8 37 -6 42 3 4 1 10 -4 13 -4 3 -8 16 -8 30 0 13 -8 43 -17 67 -9 24 -18 58 -19 74 -2 17 -6 36 -10 42 -3 5 -9 30 -12 54 -3 24 -13 63 -22 87 -9 23 -13 45 -10 49 4 3 2 12 -5 20 -6 7 -8 16 -5 20 4 3 2 14 -4 25 -9 16 -14 38 -23 98 -1 9 -6 21 -10 28 -4 8 -10 34 -12 59 -3 25 -9 53 -14 63 -9 18 -30 98 -34 135 -1 12 -6 27 -10 34 -4 7 -5 15 -2 18 3 3 1 12 -4 19 -6 6 -10 16 -8 20 1 5 -4 26 -11 47 -7 21 -10 41 -7 44 3 4 1 12 -6 20 -6 7 -8 16 -5 20 4 3 2 14 -4 25 -20 37 -29 124 -29 283 0 88 0 161 0 163 0 1 180 2 400 2 l400 0 -2 -182z m518 132 c3 -25 7 -74 9 -110 3 -36 8 -96 11 -135 4 -38 7 -89 7 -112 l0 -43 83 0 c97 0 94 -3 100 119 2 42 6 99 9 126 2 28 6 84 8 125 l4 75 214 0 c171 0 213 -3 211 -13 -5 -25 -20 -149 -26 -222 -2 -25 -7 -65 -11 -90 -4 -25 -8 -61 -9 -80 l0 -35 88 -3 89 -3 -8 33 c-4 18 -9 51 -11 73 -2 22 -6 58 -10 80 -3 22 -8 58 -9 80 -5 58 -14 152 -17 167 -2 10 39 13 206 13 l209 0 3 -32 c13 -119 22 -247 25 -345 l2 -68 82 0 c82 0 83 0 91 28 4 15 9 54 10 87 2 33 6 89 9 125 3 36 7 97 8 135 l2 70 215 0 c209 0 215 -1 212 -20 -1 -11 -4 -38 -6 -60 -3 -22 -7 -53 -10 -70 -4 -28 -12 -88 -21 -175 -2 -19 -6 -51 -9 -70 -3 -19 -8 -60 -11 -90 -6 -67 -12 -115 -19 -155 -4 -28 -12 -87 -21 -175 -2 -19 -6 -51 -9 -70 -3 -19 -8 -60 -11 -90 -7 -72 -12 -116 -20 -165 -3 -22 -8 -60 -10 -85 -6 -52 -12 -100 -19 -150 -3 -19 -8 -60 -11 -90 -6 -67 -12 -115 -19 -155 -4 -27 -10 -76 -21 -175 -2 -19 -6 -51 -9 -70 -6 -44 -16 -134 -19 -180 l-2 -35 -284 -3 c-157 -1 -288 1 -293 6 -8 8 -15 48 -23 132 -7 72 -17 156 -21 185 -3 17 -7 46 -9 65 -8 79 -17 157 -22 185 -3 17 -6 46 -8 65 -4 42 -15 142 -21 190 -5 37 -9 73 -18 155 -3 28 -8 66 -11 85 -7 37 -15 115 -19 165 -1 17 -6 47 -10 68 l-8 37 -124 0 c-92 0 -124 -3 -125 -12 -1 -7 -3 -24 -4 -38 -1 -14 -6 -52 -10 -85 -4 -33 -8 -76 -10 -95 -2 -19 -6 -48 -9 -65 -6 -39 -17 -130 -21 -175 -1 -19 -6 -55 -9 -80 -4 -25 -10 -65 -12 -90 -11 -93 -13 -116 -18 -145 -6 -36 -16 -126 -21 -180 -2 -22 -6 -58 -10 -80 -5 -37 -10 -78 -21 -165 -2 -19 -5 -48 -8 -65 -2 -16 -4 -38 -5 -47 -1 -17 -22 -18 -291 -18 l-290 0 -5 23 c-3 12 -5 31 -5 42 1 23 -8 113 -16 165 -7 48 -13 95 -19 160 -3 30 -8 71 -10 90 -6 39 -13 103 -20 165 -2 22 -7 58 -10 80 -4 22 -9 58 -11 80 -2 22 -7 65 -10 95 -3 30 -6 66 -6 80 0 14 -4 30 -9 36 -5 6 -9 27 -8 45 1 31 -3 72 -17 174 -7 50 -12 95 -19 165 -3 30 -8 69 -10 85 -7 38 -14 95 -21 165 -3 30 -7 69 -10 85 -6 36 -12 89 -20 170 -8 85 -10 97 -18 127 -17 58 -16 59 210 56 l206 -3 4 -45z m2374 -395 l0 -446 58 3 57 3 5 440 5 440 218 3 217 2 0 -414 c0 -356 -2 -422 -16 -463 -17 -51 -67 -107 -118 -133 -43 -22 -43 -38 -1 -56 46 -19 102 -74 120 -119 12 -27 15 -100 14 -357 0 -321 0 -323 -24 -375 -29 -60 -71 -113 -91 -113 -8 0 -14 -5 -14 -11 0 -5 -20 -19 -45 -30 -41 -18 -70 -20 -432 -22 l-388 -2 2 1045 c2 575 3 1046 3 1048 0 1 97 2 215 2 l215 0 0 -445z"/>
 <path d="M3637 2233 c-4 -3 -7 -158 -7 -344 l0 -338 23 -3 c12 -2 39 -1 59 1 l37 3 -5 332 c-3 182 -7 337 -10 344 -4 13 -85 17 -97 5z"/>
 <path d="M3636 1231 c-3 -4 -6 -125 -6 -267 l-1 -259 60 -3 61 -3 0 271 0 270 -54 0 c-30 0 -57 -4 -60 -9z"/>
 <path d="M4769 1743 c-5 -14 -7 -34 -3 -42 4 -9 8 -54 10 -101 3 -88 12 -233 20 -330 5 -58 10 -142 18 -304 3 -54 7 -101 10 -104 12 -11 19 9 22 60 17 326 24 439 28 483 2 22 6 87 9 145 3 58 8 121 12 141 11 59 -6 79 -66 79 -44 0 -51 -3 -60 -27z"/>
 <path d="M6819 1744 c-5 -15 -7 -36 -3 -46 3 -11 8 -61 10 -112 3 -50 7 -122 10 -161 3 -38 7 -95 9 -125 2 -30 7 -100 10 -155 10 -191 14 -230 23 -260 l9 -30 6 35 c3 19 5 46 5 60 0 14 3 77 7 140 4 63 9 151 11 195 2 44 6 98 8 120 5 49 18 270 19 306 0 51 -9 59 -63 59 -45 0 -52 -3 -61 -26z"/>
 <path d="M7965 1718 c4 -29 9 -91 12 -138 2 -47 6 -107 9 -135 2 -27 6 -81 8 -120 4 -84 17 -275 22 -330 2 -22 5 -68 7 -103 2 -34 7 -65 9 -68 6 -5 16 85 16 136 0 24 9 176 17 285 14 208 27 422 26 464 0 57 -5 61 -72 61 l-62 0 8 -52z"/>
 <path d="M9142 1013 l3 -308 58 -3 57 -3 0 311 0 310 -60 0 -60 0 2 -307z"/>
 <path d="M4630 3138 l0 -93 40 89 c22 48 40 90 40 92 0 2 -18 4 -40 4 l-40 0 0 -92z"/>
 <path d="M4928 3208 c10 -43 33 -68 62 -68 32 0 47 15 60 59 l9 31 -69 0 c-66 0 -68 -1 -62 -22z"/>
 <path d="M6054 3216 c-3 -8 -2 -50 3 -93 l8 -78 34 80 c18 44 36 86 38 93 4 8 -7 12 -36 12 -27 0 -44 -5 -47 -14z"/>
 <path d="M6844 3198 c9 -45 24 -58 66 -58 33 0 38 3 43 28 3 15 9 35 12 45 6 15 0 17 -60 17 l-67 0 6 -32z"/>
 <path d="M7298 3183 c6 -92 5 -92 45 -25 20 35 37 65 37 68 0 2 -19 4 -43 4 l-42 0 3 -47z"/>
 <path d="M7570 3220 c0 -6 7 -26 14 -45 13 -31 19 -35 51 -35 32 0 38 4 51 35 7 19 14 39 14 45 0 6 -27 10 -65 10 -38 0 -65 -4 -65 -10z"/>
 <path d="M8314 3198 c18 -52 25 -58 65 -58 34 0 39 3 44 28 3 15 9 35 12 45 6 15 0 17 -63 17 l-70 0 12 -32z"/>
 <path d="M8895 3213 c3 -10 9 -30 12 -45 5 -25 10 -28 43 -28 41 0 56 13 70 59 l9 31 -71 0 c-63 0 -69 -2 -63 -17z"/>
 <path d="M9206 3203 c10 -41 33 -63 65 -63 24 0 32 7 44 36 8 20 15 40 15 45 0 5 -29 9 -65 9 l-65 0 6 -27z"/>
 <path d="M9534 3206 c-8 -33 -1 -89 12 -93 8 -3 52 64 72 109 2 5 -15 8 -37 8 -34 0 -42 -4 -47 -24z"/>
 <path d="M8034 3156 c-10 -26 1 -81 16 -84 16 -3 60 32 60 48 0 14 -42 50 -57 50 -8 0 -16 -6 -19 -14z"/>
 <path d="M6398 3149 c-15 -8 -18 -25 -18 -98 0 -96 9 -115 52 -109 30 4 50 48 51 107 0 45 -19 101 -34 101 -4 0 -13 2 -21 5 -7 2 -21 0 -30 -6z"/>
 <path d="M4976 3043 c11 -46 18 -46 29 0 6 23 4 27 -14 27 -18 0 -20 -4 -15 -27z"/>
 <path d="M6880 3066 c0 -3 5 -17 11 -33 10 -26 12 -27 19 -8 14 33 11 45 -10 45 -11 0 -20 -2 -20 -4z"/>
 <path d="M7617 3050 c-3 -10 1 -24 8 -30 10 -8 15 -3 23 20 10 26 9 30 -7 30 -10 0 -21 -9 -24 -20z"/>
 <path d="M8356 3048 c3 -13 10 -30 15 -38 7 -13 8 -13 9 0 0 8 3 25 6 38 5 18 2 22 -16 22 -18 0 -20 -4 -14 -22z"/>
 <path d="M8944 3054 c3 -9 6 -22 6 -30 0 -23 17 -7 22 21 4 20 1 25 -14 25 -14 0 -18 -5 -14 -16z"/>
 <path d="M9250 3053 c0 -10 4 -24 9 -31 6 -10 11 -6 19 17 10 28 9 31 -9 31 -11 0 -19 -7 -19 -17z"/>
 <path d="M9537 3004 c-13 -13 -7 -55 8 -60 8 -4 27 -3 41 0 20 5 25 12 22 34 -2 22 -9 28 -33 30 -17 2 -34 0 -38 -4z"/>
 <path d="M8030 2971 c0 -28 3 -31 31 -31 27 0 30 3 27 28 -2 21 -9 28 -30 30 -25 3 -28 0 -28 -27z"/>
 <path d="M452 2228 c-9 -9 -12 -93 -12 -345 l0 -333 54 0 c52 0 54 1 60 33 9 44 6 589 -3 624 -6 24 -13 28 -47 31 -22 2 -45 -3 -52 -10z"/>
 <path d="M452 1228 c-9 -9 -12 -82 -12 -265 l0 -254 58 3 57 3 2 239 c1 131 -3 249 -7 262 -8 20 -17 24 -48 24 -21 0 -43 -5 -50 -12z"/>
 <path d="M9958 91 c-29 -26 -69 -58 -88 -70 l-35 -21 203 0 202 0 0 51 c0 48 -1 50 -22 43 -36 -12 -66 -6 -112 21 -62 37 -86 33 -148 -24z"/>
 </g>

</svg>